<?xml version="1.0" encoding="utf-8" standalone="no"?>
<!DOCTYPE svg PUBLIC "-//W3C//DTD SVG 1.1//EN"
  "http://www.w3.org/Graphics/SVG/1.1/DTD/svg11.dtd">
<svg xmlns:xlink="http://www.w3.org/1999/xlink" width="618.528125pt" height="325.755469pt" viewBox="0 0 618.528125 325.755469" xmlns="http://www.w3.org/2000/svg" version="1.1">
 <metadata>
  <rdf:RDF xmlns:dc="http://purl.org/dc/elements/1.1/" xmlns:cc="http://creativecommons.org/ns#" xmlns:rdf="http://www.w3.org/1999/02/22-rdf-syntax-ns#">
   <cc:Work>
    <dc:type rdf:resource="http://purl.org/dc/dcmitype/StillImage"/>
    <dc:date>2024-06-13T16:21:42.136751</dc:date>
    <dc:format>image/svg+xml</dc:format>
    <dc:creator>
     <cc:Agent>
      <dc:title>Matplotlib v3.9.0, https://matplotlib.org/</dc:title>
     </cc:Agent>
    </dc:creator>
   </cc:Work>
  </rdf:RDF>
 </metadata>
 <defs>
  <style type="text/css">*{stroke-linejoin: round; stroke-linecap: butt}</style>
 </defs>
 <g id="figure_1">
  <g id="patch_1">
   <path d="M 0 325.755469 
L 618.528125 325.755469 
L 618.528125 0 
L 0 0 
z
" style="fill: #ffffff"/>
  </g>
  <g id="axes_1">
   <g id="patch_2">
    <path d="M 7.2 288.199219 
L 565.2 288.199219 
L 565.2 10.999219 
L 7.2 10.999219 
z
" style="fill: #ffffff"/>
   </g>
   <g id="matplotlib.axis_1">
    <g id="xtick_1">
     <g id="line2d_1">
      <defs>
       <path id="m334ad77c36" d="M 0 0 
L 0 3.5 
" style="stroke: #000000; stroke-width: 0.8"/>
      </defs>
      <g>
       <use xlink:href="#m334ad77c36" x="48.533333" y="288.199219" style="stroke: #000000; stroke-width: 0.8"/>
      </g>
     </g>
     <g id="text_1">
      <!-- 50 -->
      <g transform="translate(42.170833 302.797656) scale(0.1 -0.1)">
       <defs>
        <path id="DejaVuSans-35" d="M 691 4666 
L 3169 4666 
L 3169 4134 
L 1269 4134 
L 1269 2991 
Q 1406 3038 1543 3061 
Q 1681 3084 1819 3084 
Q 2600 3084 3056 2656 
Q 3513 2228 3513 1497 
Q 3513 744 3044 326 
Q 2575 -91 1722 -91 
Q 1428 -91 1123 -41 
Q 819 9 494 109 
L 494 744 
Q 775 591 1075 516 
Q 1375 441 1709 441 
Q 2250 441 2565 725 
Q 2881 1009 2881 1497 
Q 2881 1984 2565 2268 
Q 2250 2553 1709 2553 
Q 1456 2553 1204 2497 
Q 953 2441 691 2322 
L 691 4666 
z
" transform="scale(0.015625)"/>
        <path id="DejaVuSans-30" d="M 2034 4250 
Q 1547 4250 1301 3770 
Q 1056 3291 1056 2328 
Q 1056 1369 1301 889 
Q 1547 409 2034 409 
Q 2525 409 2770 889 
Q 3016 1369 3016 2328 
Q 3016 3291 2770 3770 
Q 2525 4250 2034 4250 
z
M 2034 4750 
Q 2819 4750 3233 4129 
Q 3647 3509 3647 2328 
Q 3647 1150 3233 529 
Q 2819 -91 2034 -91 
Q 1250 -91 836 529 
Q 422 1150 422 2328 
Q 422 3509 836 4129 
Q 1250 4750 2034 4750 
z
" transform="scale(0.015625)"/>
       </defs>
       <use xlink:href="#DejaVuSans-35"/>
       <use xlink:href="#DejaVuSans-30" x="63.623047"/>
      </g>
     </g>
    </g>
    <g id="xtick_2">
     <g id="line2d_2">
      <g>
       <use xlink:href="#m334ad77c36" x="151.866667" y="288.199219" style="stroke: #000000; stroke-width: 0.8"/>
      </g>
     </g>
     <g id="text_2">
      <!-- 100 -->
      <g transform="translate(142.322917 302.797656) scale(0.1 -0.1)">
       <defs>
        <path id="DejaVuSans-31" d="M 794 531 
L 1825 531 
L 1825 4091 
L 703 3866 
L 703 4441 
L 1819 4666 
L 2450 4666 
L 2450 531 
L 3481 531 
L 3481 0 
L 794 0 
L 794 531 
z
" transform="scale(0.015625)"/>
       </defs>
       <use xlink:href="#DejaVuSans-31"/>
       <use xlink:href="#DejaVuSans-30" x="63.623047"/>
       <use xlink:href="#DejaVuSans-30" x="127.246094"/>
      </g>
     </g>
    </g>
    <g id="xtick_3">
     <g id="line2d_3">
      <g>
       <use xlink:href="#m334ad77c36" x="255.2" y="288.199219" style="stroke: #000000; stroke-width: 0.8"/>
      </g>
     </g>
     <g id="text_3">
      <!-- 150 -->
      <g transform="translate(245.65625 302.797656) scale(0.1 -0.1)">
       <use xlink:href="#DejaVuSans-31"/>
       <use xlink:href="#DejaVuSans-35" x="63.623047"/>
       <use xlink:href="#DejaVuSans-30" x="127.246094"/>
      </g>
     </g>
    </g>
    <g id="xtick_4">
     <g id="line2d_4">
      <g>
       <use xlink:href="#m334ad77c36" x="358.533333" y="288.199219" style="stroke: #000000; stroke-width: 0.8"/>
      </g>
     </g>
     <g id="text_4">
      <!-- 200 -->
      <g transform="translate(348.989583 302.797656) scale(0.1 -0.1)">
       <defs>
        <path id="DejaVuSans-32" d="M 1228 531 
L 3431 531 
L 3431 0 
L 469 0 
L 469 531 
Q 828 903 1448 1529 
Q 2069 2156 2228 2338 
Q 2531 2678 2651 2914 
Q 2772 3150 2772 3378 
Q 2772 3750 2511 3984 
Q 2250 4219 1831 4219 
Q 1534 4219 1204 4116 
Q 875 4013 500 3803 
L 500 4441 
Q 881 4594 1212 4672 
Q 1544 4750 1819 4750 
Q 2544 4750 2975 4387 
Q 3406 4025 3406 3419 
Q 3406 3131 3298 2873 
Q 3191 2616 2906 2266 
Q 2828 2175 2409 1742 
Q 1991 1309 1228 531 
z
" transform="scale(0.015625)"/>
       </defs>
       <use xlink:href="#DejaVuSans-32"/>
       <use xlink:href="#DejaVuSans-30" x="63.623047"/>
       <use xlink:href="#DejaVuSans-30" x="127.246094"/>
      </g>
     </g>
    </g>
    <g id="xtick_5">
     <g id="line2d_5">
      <g>
       <use xlink:href="#m334ad77c36" x="461.866667" y="288.199219" style="stroke: #000000; stroke-width: 0.8"/>
      </g>
     </g>
     <g id="text_5">
      <!-- 250 -->
      <g transform="translate(452.322917 302.797656) scale(0.1 -0.1)">
       <use xlink:href="#DejaVuSans-32"/>
       <use xlink:href="#DejaVuSans-35" x="63.623047"/>
       <use xlink:href="#DejaVuSans-30" x="127.246094"/>
      </g>
     </g>
    </g>
    <g id="xtick_6">
     <g id="line2d_6">
      <g>
       <use xlink:href="#m334ad77c36" x="565.2" y="288.199219" style="stroke: #000000; stroke-width: 0.8"/>
      </g>
     </g>
     <g id="text_6">
      <!-- 300 -->
      <g transform="translate(555.65625 302.797656) scale(0.1 -0.1)">
       <defs>
        <path id="DejaVuSans-33" d="M 2597 2516 
Q 3050 2419 3304 2112 
Q 3559 1806 3559 1356 
Q 3559 666 3084 287 
Q 2609 -91 1734 -91 
Q 1441 -91 1130 -33 
Q 819 25 488 141 
L 488 750 
Q 750 597 1062 519 
Q 1375 441 1716 441 
Q 2309 441 2620 675 
Q 2931 909 2931 1356 
Q 2931 1769 2642 2001 
Q 2353 2234 1838 2234 
L 1294 2234 
L 1294 2753 
L 1863 2753 
Q 2328 2753 2575 2939 
Q 2822 3125 2822 3475 
Q 2822 3834 2567 4026 
Q 2313 4219 1838 4219 
Q 1578 4219 1281 4162 
Q 984 4106 628 3988 
L 628 4550 
Q 988 4650 1302 4700 
Q 1616 4750 1894 4750 
Q 2613 4750 3031 4423 
Q 3450 4097 3450 3541 
Q 3450 3153 3228 2886 
Q 3006 2619 2597 2516 
z
" transform="scale(0.015625)"/>
       </defs>
       <use xlink:href="#DejaVuSans-33"/>
       <use xlink:href="#DejaVuSans-30" x="63.623047"/>
       <use xlink:href="#DejaVuSans-30" x="127.246094"/>
      </g>
     </g>
    </g>
    <g id="text_7">
     <!-- Time [s] -->
     <g transform="translate(265.871094 316.475781) scale(0.1 -0.1)">
      <defs>
       <path id="DejaVuSans-54" d="M -19 4666 
L 3928 4666 
L 3928 4134 
L 2272 4134 
L 2272 0 
L 1638 0 
L 1638 4134 
L -19 4134 
L -19 4666 
z
" transform="scale(0.015625)"/>
       <path id="DejaVuSans-69" d="M 603 3500 
L 1178 3500 
L 1178 0 
L 603 0 
L 603 3500 
z
M 603 4863 
L 1178 4863 
L 1178 4134 
L 603 4134 
L 603 4863 
z
" transform="scale(0.015625)"/>
       <path id="DejaVuSans-6d" d="M 3328 2828 
Q 3544 3216 3844 3400 
Q 4144 3584 4550 3584 
Q 5097 3584 5394 3201 
Q 5691 2819 5691 2113 
L 5691 0 
L 5113 0 
L 5113 2094 
Q 5113 2597 4934 2840 
Q 4756 3084 4391 3084 
Q 3944 3084 3684 2787 
Q 3425 2491 3425 1978 
L 3425 0 
L 2847 0 
L 2847 2094 
Q 2847 2600 2669 2842 
Q 2491 3084 2119 3084 
Q 1678 3084 1418 2786 
Q 1159 2488 1159 1978 
L 1159 0 
L 581 0 
L 581 3500 
L 1159 3500 
L 1159 2956 
Q 1356 3278 1631 3431 
Q 1906 3584 2284 3584 
Q 2666 3584 2933 3390 
Q 3200 3197 3328 2828 
z
" transform="scale(0.015625)"/>
       <path id="DejaVuSans-65" d="M 3597 1894 
L 3597 1613 
L 953 1613 
Q 991 1019 1311 708 
Q 1631 397 2203 397 
Q 2534 397 2845 478 
Q 3156 559 3463 722 
L 3463 178 
Q 3153 47 2828 -22 
Q 2503 -91 2169 -91 
Q 1331 -91 842 396 
Q 353 884 353 1716 
Q 353 2575 817 3079 
Q 1281 3584 2069 3584 
Q 2775 3584 3186 3129 
Q 3597 2675 3597 1894 
z
M 3022 2063 
Q 3016 2534 2758 2815 
Q 2500 3097 2075 3097 
Q 1594 3097 1305 2825 
Q 1016 2553 972 2059 
L 3022 2063 
z
" transform="scale(0.015625)"/>
       <path id="DejaVuSans-20" transform="scale(0.015625)"/>
       <path id="DejaVuSans-5b" d="M 550 4863 
L 1875 4863 
L 1875 4416 
L 1125 4416 
L 1125 -397 
L 1875 -397 
L 1875 -844 
L 550 -844 
L 550 4863 
z
" transform="scale(0.015625)"/>
       <path id="DejaVuSans-73" d="M 2834 3397 
L 2834 2853 
Q 2591 2978 2328 3040 
Q 2066 3103 1784 3103 
Q 1356 3103 1142 2972 
Q 928 2841 928 2578 
Q 928 2378 1081 2264 
Q 1234 2150 1697 2047 
L 1894 2003 
Q 2506 1872 2764 1633 
Q 3022 1394 3022 966 
Q 3022 478 2636 193 
Q 2250 -91 1575 -91 
Q 1294 -91 989 -36 
Q 684 19 347 128 
L 347 722 
Q 666 556 975 473 
Q 1284 391 1588 391 
Q 1994 391 2212 530 
Q 2431 669 2431 922 
Q 2431 1156 2273 1281 
Q 2116 1406 1581 1522 
L 1381 1569 
Q 847 1681 609 1914 
Q 372 2147 372 2553 
Q 372 3047 722 3315 
Q 1072 3584 1716 3584 
Q 2034 3584 2315 3537 
Q 2597 3491 2834 3397 
z
" transform="scale(0.015625)"/>
       <path id="DejaVuSans-5d" d="M 1947 4863 
L 1947 -844 
L 622 -844 
L 622 -397 
L 1369 -397 
L 1369 4416 
L 622 4416 
L 622 4863 
L 1947 4863 
z
" transform="scale(0.015625)"/>
      </defs>
      <use xlink:href="#DejaVuSans-54"/>
      <use xlink:href="#DejaVuSans-69" x="57.958984"/>
      <use xlink:href="#DejaVuSans-6d" x="85.742188"/>
      <use xlink:href="#DejaVuSans-65" x="183.154297"/>
      <use xlink:href="#DejaVuSans-20" x="244.677734"/>
      <use xlink:href="#DejaVuSans-5b" x="276.464844"/>
      <use xlink:href="#DejaVuSans-73" x="315.478516"/>
      <use xlink:href="#DejaVuSans-5d" x="367.578125"/>
     </g>
    </g>
   </g>
   <g id="matplotlib.axis_2">
    <g id="ytick_1">
     <g id="line2d_7">
      <defs>
       <path id="m8ea1d7753b" d="M 0 0 
L 3.5 0 
" style="stroke: #000000; stroke-width: 0.8"/>
      </defs>
      <g>
       <use xlink:href="#m8ea1d7753b" x="565.2" y="288.199219" style="stroke: #000000; stroke-width: 0.8"/>
      </g>
     </g>
     <g id="text_8">
      <!-- 0 -->
      <g transform="translate(572.2 291.998438) scale(0.1 -0.1)">
       <use xlink:href="#DejaVuSans-30"/>
      </g>
     </g>
    </g>
    <g id="ytick_2">
     <g id="line2d_8">
      <g>
       <use xlink:href="#m8ea1d7753b" x="565.2" y="232.759219" style="stroke: #000000; stroke-width: 0.8"/>
      </g>
     </g>
     <g id="text_9">
      <!-- 500 -->
      <g transform="translate(572.2 236.558438) scale(0.1 -0.1)">
       <use xlink:href="#DejaVuSans-35"/>
       <use xlink:href="#DejaVuSans-30" x="63.623047"/>
       <use xlink:href="#DejaVuSans-30" x="127.246094"/>
      </g>
     </g>
    </g>
    <g id="ytick_3">
     <g id="line2d_9">
      <g>
       <use xlink:href="#m8ea1d7753b" x="565.2" y="177.319219" style="stroke: #000000; stroke-width: 0.8"/>
      </g>
     </g>
     <g id="text_10">
      <!-- 1000 -->
      <g transform="translate(572.2 181.118437) scale(0.1 -0.1)">
       <use xlink:href="#DejaVuSans-31"/>
       <use xlink:href="#DejaVuSans-30" x="63.623047"/>
       <use xlink:href="#DejaVuSans-30" x="127.246094"/>
       <use xlink:href="#DejaVuSans-30" x="190.869141"/>
      </g>
     </g>
    </g>
    <g id="ytick_4">
     <g id="line2d_10">
      <g>
       <use xlink:href="#m8ea1d7753b" x="565.2" y="121.879219" style="stroke: #000000; stroke-width: 0.8"/>
      </g>
     </g>
     <g id="text_11">
      <!-- 1500 -->
      <g transform="translate(572.2 125.678438) scale(0.1 -0.1)">
       <use xlink:href="#DejaVuSans-31"/>
       <use xlink:href="#DejaVuSans-35" x="63.623047"/>
       <use xlink:href="#DejaVuSans-30" x="127.246094"/>
       <use xlink:href="#DejaVuSans-30" x="190.869141"/>
      </g>
     </g>
    </g>
    <g id="ytick_5">
     <g id="line2d_11">
      <g>
       <use xlink:href="#m8ea1d7753b" x="565.2" y="66.439219" style="stroke: #000000; stroke-width: 0.8"/>
      </g>
     </g>
     <g id="text_12">
      <!-- 2000 -->
      <g transform="translate(572.2 70.238437) scale(0.1 -0.1)">
       <use xlink:href="#DejaVuSans-32"/>
       <use xlink:href="#DejaVuSans-30" x="63.623047"/>
       <use xlink:href="#DejaVuSans-30" x="127.246094"/>
       <use xlink:href="#DejaVuSans-30" x="190.869141"/>
      </g>
     </g>
    </g>
    <g id="ytick_6">
     <g id="line2d_12">
      <g>
       <use xlink:href="#m8ea1d7753b" x="565.2" y="10.999219" style="stroke: #000000; stroke-width: 0.8"/>
      </g>
     </g>
     <g id="text_13">
      <!-- 2500 -->
      <g transform="translate(572.2 14.798438) scale(0.1 -0.1)">
       <use xlink:href="#DejaVuSans-32"/>
       <use xlink:href="#DejaVuSans-35" x="63.623047"/>
       <use xlink:href="#DejaVuSans-30" x="127.246094"/>
       <use xlink:href="#DejaVuSans-30" x="190.869141"/>
      </g>
     </g>
    </g>
    <g id="text_14">
     <!-- Spike Count -->
     <g transform="translate(609.248438 179.564844) rotate(-90) scale(0.1 -0.1)">
      <defs>
       <path id="DejaVuSans-53" d="M 3425 4513 
L 3425 3897 
Q 3066 4069 2747 4153 
Q 2428 4238 2131 4238 
Q 1616 4238 1336 4038 
Q 1056 3838 1056 3469 
Q 1056 3159 1242 3001 
Q 1428 2844 1947 2747 
L 2328 2669 
Q 3034 2534 3370 2195 
Q 3706 1856 3706 1288 
Q 3706 609 3251 259 
Q 2797 -91 1919 -91 
Q 1588 -91 1214 -16 
Q 841 59 441 206 
L 441 856 
Q 825 641 1194 531 
Q 1563 422 1919 422 
Q 2459 422 2753 634 
Q 3047 847 3047 1241 
Q 3047 1584 2836 1778 
Q 2625 1972 2144 2069 
L 1759 2144 
Q 1053 2284 737 2584 
Q 422 2884 422 3419 
Q 422 4038 858 4394 
Q 1294 4750 2059 4750 
Q 2388 4750 2728 4690 
Q 3069 4631 3425 4513 
z
" transform="scale(0.015625)"/>
       <path id="DejaVuSans-70" d="M 1159 525 
L 1159 -1331 
L 581 -1331 
L 581 3500 
L 1159 3500 
L 1159 2969 
Q 1341 3281 1617 3432 
Q 1894 3584 2278 3584 
Q 2916 3584 3314 3078 
Q 3713 2572 3713 1747 
Q 3713 922 3314 415 
Q 2916 -91 2278 -91 
Q 1894 -91 1617 61 
Q 1341 213 1159 525 
z
M 3116 1747 
Q 3116 2381 2855 2742 
Q 2594 3103 2138 3103 
Q 1681 3103 1420 2742 
Q 1159 2381 1159 1747 
Q 1159 1113 1420 752 
Q 1681 391 2138 391 
Q 2594 391 2855 752 
Q 3116 1113 3116 1747 
z
" transform="scale(0.015625)"/>
       <path id="DejaVuSans-6b" d="M 581 4863 
L 1159 4863 
L 1159 1991 
L 2875 3500 
L 3609 3500 
L 1753 1863 
L 3688 0 
L 2938 0 
L 1159 1709 
L 1159 0 
L 581 0 
L 581 4863 
z
" transform="scale(0.015625)"/>
       <path id="DejaVuSans-43" d="M 4122 4306 
L 4122 3641 
Q 3803 3938 3442 4084 
Q 3081 4231 2675 4231 
Q 1875 4231 1450 3742 
Q 1025 3253 1025 2328 
Q 1025 1406 1450 917 
Q 1875 428 2675 428 
Q 3081 428 3442 575 
Q 3803 722 4122 1019 
L 4122 359 
Q 3791 134 3420 21 
Q 3050 -91 2638 -91 
Q 1578 -91 968 557 
Q 359 1206 359 2328 
Q 359 3453 968 4101 
Q 1578 4750 2638 4750 
Q 3056 4750 3426 4639 
Q 3797 4528 4122 4306 
z
" transform="scale(0.015625)"/>
       <path id="DejaVuSans-6f" d="M 1959 3097 
Q 1497 3097 1228 2736 
Q 959 2375 959 1747 
Q 959 1119 1226 758 
Q 1494 397 1959 397 
Q 2419 397 2687 759 
Q 2956 1122 2956 1747 
Q 2956 2369 2687 2733 
Q 2419 3097 1959 3097 
z
M 1959 3584 
Q 2709 3584 3137 3096 
Q 3566 2609 3566 1747 
Q 3566 888 3137 398 
Q 2709 -91 1959 -91 
Q 1206 -91 779 398 
Q 353 888 353 1747 
Q 353 2609 779 3096 
Q 1206 3584 1959 3584 
z
" transform="scale(0.015625)"/>
       <path id="DejaVuSans-75" d="M 544 1381 
L 544 3500 
L 1119 3500 
L 1119 1403 
Q 1119 906 1312 657 
Q 1506 409 1894 409 
Q 2359 409 2629 706 
Q 2900 1003 2900 1516 
L 2900 3500 
L 3475 3500 
L 3475 0 
L 2900 0 
L 2900 538 
Q 2691 219 2414 64 
Q 2138 -91 1772 -91 
Q 1169 -91 856 284 
Q 544 659 544 1381 
z
M 1991 3584 
L 1991 3584 
z
" transform="scale(0.015625)"/>
       <path id="DejaVuSans-6e" d="M 3513 2113 
L 3513 0 
L 2938 0 
L 2938 2094 
Q 2938 2591 2744 2837 
Q 2550 3084 2163 3084 
Q 1697 3084 1428 2787 
Q 1159 2491 1159 1978 
L 1159 0 
L 581 0 
L 581 3500 
L 1159 3500 
L 1159 2956 
Q 1366 3272 1645 3428 
Q 1925 3584 2291 3584 
Q 2894 3584 3203 3211 
Q 3513 2838 3513 2113 
z
" transform="scale(0.015625)"/>
       <path id="DejaVuSans-74" d="M 1172 4494 
L 1172 3500 
L 2356 3500 
L 2356 3053 
L 1172 3053 
L 1172 1153 
Q 1172 725 1289 603 
Q 1406 481 1766 481 
L 2356 481 
L 2356 0 
L 1766 0 
Q 1100 0 847 248 
Q 594 497 594 1153 
L 594 3053 
L 172 3053 
L 172 3500 
L 594 3500 
L 594 4494 
L 1172 4494 
z
" transform="scale(0.015625)"/>
      </defs>
      <use xlink:href="#DejaVuSans-53"/>
      <use xlink:href="#DejaVuSans-70" x="63.476562"/>
      <use xlink:href="#DejaVuSans-69" x="126.953125"/>
      <use xlink:href="#DejaVuSans-6b" x="154.736328"/>
      <use xlink:href="#DejaVuSans-65" x="209.021484"/>
      <use xlink:href="#DejaVuSans-20" x="270.544922"/>
      <use xlink:href="#DejaVuSans-43" x="302.332031"/>
      <use xlink:href="#DejaVuSans-6f" x="372.15625"/>
      <use xlink:href="#DejaVuSans-75" x="433.337891"/>
      <use xlink:href="#DejaVuSans-6e" x="496.716797"/>
      <use xlink:href="#DejaVuSans-74" x="560.095703"/>
     </g>
    </g>
   </g>
   <g id="line2d_13">
    <path d="M 6.993333 252.271183 
L 7.406667 255.237657 
L 7.613333 256.696334 
L 7.82 257.197916 
L 8.026667 257.211798 
L 8.233333 257.843617 
L 9.06 264.396062 
L 9.473333 266.366287 
L 9.68 266.650703 
L 10.093333 266.477775 
L 10.3 267.11586 
L 10.92 272.177974 
L 11.126667 272.325621 
L 11.746667 269.149391 
L 12.573333 270.573671 
L 12.986667 270.920671 
L 13.193333 271.222743 
L 13.4 270.959049 
L 13.606667 269.079491 
L 14.02 259.728275 
L 14.64 245.724177 
L 15.053333 238.540586 
L 15.673333 222.893681 
L 15.88 221.242766 
L 16.086667 222.34904 
L 16.5 229.987456 
L 16.913333 236.76217 
L 17.326667 238.384643 
L 17.946667 243.246631 
L 18.153333 243.106858 
L 18.566667 240.878722 
L 18.773333 240.810387 
L 19.186667 244.540522 
L 19.806667 251.094705 
L 20.22 253.345312 
L 21.046667 262.72052 
L 22.08 270.664443 
L 22.493333 272.592747 
L 22.906667 276.84246 
L 23.32 280.700448 
L 23.526667 281.219372 
L 23.94 281.059167 
L 24.353333 280.660293 
L 24.56 279.90031 
L 24.973333 277.015563 
L 25.386667 276.025984 
L 25.593333 273.973312 
L 26.006667 262.587022 
L 26.626667 234.831316 
L 27.66 188.01182 
L 27.866667 185.284962 
L 28.073333 186.764248 
L 28.486667 195.202702 
L 29.313333 218.45617 
L 29.933333 228.913062 
L 30.553333 238.870795 
L 30.76 240.613269 
L 30.966667 241.083142 
L 31.173333 240.935342 
L 31.38 241.697983 
L 31.793333 244.665844 
L 32 244.066882 
L 32.413333 241.354584 
L 32.826667 240.911673 
L 33.033333 240.900405 
L 33.24 241.619013 
L 33.653333 246.214121 
L 34.066667 251.320695 
L 34.48 253.573286 
L 34.686667 253.990149 
L 35.1 253.994284 
L 35.306667 254.770331 
L 36.34 263.190719 
L 36.546667 264.700361 
L 37.166667 272.023886 
L 37.58 274.022835 
L 38.2 276.203298 
L 38.406667 276.275003 
L 38.613333 276.080153 
L 38.82 276.078078 
L 39.026667 276.341519 
L 39.233333 276.394566 
L 39.44 276.19693 
L 39.646667 276.38498 
L 39.853333 276.911423 
L 40.06 276.697072 
L 40.266667 275.075767 
L 40.886667 265.973458 
L 41.3 257.962121 
L 41.713333 241.434679 
L 42.333333 208.854994 
L 42.746667 198.999809 
L 42.953333 198.095088 
L 43.78 206.87057 
L 44.193333 217.458314 
L 45.226667 241.372416 
L 45.433333 244.821028 
L 45.64 245.476057 
L 46.053333 244.39248 
L 46.88 245.744146 
L 47.293333 245.020882 
L 47.5 245.428992 
L 47.913333 246.962497 
L 48.326667 246.376004 
L 48.533333 247.1235 
L 49.153333 252.055933 
L 49.36 253.434784 
L 50.186667 261.965817 
L 50.6 262.362319 
L 50.806667 263.181602 
L 51.22 267.531193 
L 51.633333 272.570943 
L 51.84 273.253758 
L 52.046667 273.498052 
L 52.873333 276.649865 
L 53.286667 276.695598 
L 53.493333 276.410433 
L 53.7 275.132314 
L 54.32 267.921566 
L 54.733333 260.507815 
L 56.593333 224.301253 
L 57.213333 217.475662 
L 57.42 217.105678 
L 57.626667 218.412164 
L 58.246667 224.825892 
L 59.073333 239.082558 
L 60.313333 245.691948 
L 60.726667 246.596563 
L 61.14 248.924997 
L 61.966667 253.640471 
L 63 264.926174 
L 64.033333 270.455656 
L 64.24 271.100802 
L 64.446667 271.166454 
L 64.653333 271.617477 
L 65.48 277.494569 
L 65.893333 278.475272 
L 66.306667 278.914892 
L 66.513333 278.665172 
L 66.72 277.786123 
L 67.133333 273.27415 
L 67.546667 266.265346 
L 67.96 252.995706 
L 68.993333 212.49834 
L 69.406667 205.384528 
L 69.613333 204.268889 
L 69.82 204.045579 
L 70.026667 205.025637 
L 70.44 210.62697 
L 70.853333 218.377254 
L 71.68 243.25587 
L 71.886667 245.242811 
L 72.093333 245.875768 
L 72.3 245.371866 
L 72.713333 243.057145 
L 72.92 242.724737 
L 73.333333 243.628019 
L 73.953333 245.233489 
L 74.16 245.089694 
L 74.366667 244.80728 
L 74.573333 245.583524 
L 75.4 254.258462 
L 75.813333 255.740392 
L 76.226667 259.13394 
L 76.64 262.148304 
L 77.673333 267.659668 
L 78.086667 271.86194 
L 78.293333 274.13682 
L 78.5 275.14524 
L 78.706667 274.943436 
L 79.12 274.094505 
L 79.326667 274.217056 
L 79.533333 274.148089 
L 79.74 273.314399 
L 80.153333 269.566487 
L 80.566667 265.459969 
L 80.98 262.829986 
L 81.393333 256.815611 
L 82.426667 234.578832 
L 82.84 232.091695 
L 83.046667 232.095511 
L 83.46 233.7684 
L 83.666667 233.248118 
L 83.873333 232.058416 
L 84.08 232.090814 
L 84.493333 237.592685 
L 84.906667 242.169345 
L 85.113333 242.968767 
L 85.526667 243.329758 
L 85.733333 244.788716 
L 86.56 255.113981 
L 86.766667 254.574136 
L 87.18 251.870571 
L 87.386667 252.121337 
L 87.8 256.022186 
L 88.42 263.158648 
L 88.626667 263.909266 
L 88.833333 263.664333 
L 89.04 263.932474 
L 89.453333 267.95314 
L 90.28 275.326881 
L 90.486667 276.275845 
L 90.693333 276.085489 
L 90.9 275.520878 
L 91.106667 275.454445 
L 91.52 276.266253 
L 91.726667 275.911349 
L 92.14 274.456794 
L 92.346667 273.984608 
L 92.553333 272.683433 
L 92.966667 266.675681 
L 93.586667 254.670627 
L 94.206667 238.349767 
L 95.033333 213.72829 
L 95.24 210.717484 
L 95.446667 210.890627 
L 95.86 219.172984 
L 96.48 233.045803 
L 96.893333 238.910097 
L 97.1 240.412967 
L 97.306667 240.516828 
L 97.926667 237.93559 
L 98.133333 238.216495 
L 98.546667 239.945379 
L 98.753333 240.203442 
L 98.96 241.324931 
L 99.58 248.912028 
L 99.786667 249.256163 
L 99.993333 248.965829 
L 100.2 249.123811 
L 100.613333 252.078504 
L 101.233333 255.780114 
L 102.06 265.626546 
L 102.266667 266.089304 
L 102.473333 266.879839 
L 102.886667 270.63261 
L 103.506667 276.075468 
L 103.713333 276.822684 
L 103.92 276.601563 
L 104.126667 276.001266 
L 104.333333 275.904273 
L 104.54 276.375002 
L 104.953333 278.135321 
L 105.366667 279.94199 
L 105.573333 280.258965 
L 105.78 279.759551 
L 105.986667 277.876296 
L 106.4 268.930671 
L 108.466667 204.214064 
L 108.673333 201.527668 
L 108.88 201.176175 
L 109.086667 202.717837 
L 109.5 209.98884 
L 111.153333 244.519394 
L 111.566667 247.626899 
L 111.773333 247.823375 
L 112.393333 244.673933 
L 112.6 244.788839 
L 113.013333 246.078842 
L 113.426667 247.63461 
L 113.84 248.457059 
L 114.046667 250.026707 
L 114.666667 259.162047 
L 114.873333 260.33305 
L 115.286667 261.044614 
L 115.7 263.149586 
L 117.146667 271.564317 
L 117.56 275.237691 
L 117.766667 276.072982 
L 117.973333 276.057016 
L 118.593333 274.513939 
L 119.006667 272.962598 
L 119.833333 267.285588 
L 120.246667 261.368443 
L 120.66 252.670409 
L 121.693333 224.265022 
L 121.9 223.424077 
L 122.106667 223.440692 
L 122.313333 222.244257 
L 122.52 220.200985 
L 122.726667 219.502038 
L 122.933333 221.24211 
L 123.346667 226.269739 
L 123.76 228.573758 
L 123.966667 229.345979 
L 124.173333 230.618615 
L 125.413333 243.2085 
L 125.826667 245.276023 
L 126.033333 246.909776 
L 126.24 247.599328 
L 126.446667 247.242447 
L 126.653333 247.816532 
L 127.273333 254.358749 
L 127.686667 256.315869 
L 128.1 260.282893 
L 128.513333 263.979803 
L 128.926667 266.546989 
L 129.546667 272.971506 
L 129.96 276.646041 
L 130.58 280.065788 
L 130.993333 281.231952 
L 131.406667 280.875025 
L 131.613333 281.39823 
L 131.82 282.277743 
L 132.026667 282.348234 
L 132.233333 280.933156 
L 132.646667 275.822985 
L 132.853333 272.144641 
L 133.266667 256.75914 
L 134.093333 206.441407 
L 134.506667 186.547214 
L 134.713333 183.506971 
L 134.92 182.434058 
L 135.126667 182.201072 
L 135.333333 183.442737 
L 135.746667 191.299479 
L 136.366667 209.633232 
L 137.193333 237.272014 
L 137.606667 241.056433 
L 137.813333 241.770959 
L 138.02 241.117691 
L 138.64 232.637948 
L 138.846667 232.409601 
L 139.673333 235.930384 
L 140.293333 234.982481 
L 140.5 235.385057 
L 140.706667 236.733351 
L 141.326667 242.869954 
L 142.36 248.084481 
L 142.566667 248.787353 
L 143.186667 254.747323 
L 143.6 254.780765 
L 143.806667 255.678004 
L 145.253333 266.793703 
L 145.666667 265.939466 
L 145.873333 266.410213 
L 146.286667 268.303751 
L 146.493333 268.415797 
L 147.113333 267.073125 
L 147.526667 269.154973 
L 147.94 271.021111 
L 148.146667 271.249577 
L 148.353333 271.123357 
L 148.56 270.405556 
L 148.973333 266.719145 
L 149.593333 260.079437 
L 150.213333 247.124017 
L 150.833333 234.161172 
L 151.246667 230.704728 
L 151.453333 230.486842 
L 151.66 231.048459 
L 152.073333 234.194769 
L 152.486667 237.413638 
L 152.9 240.112744 
L 154.14 250.763904 
L 154.346667 251.209468 
L 154.553333 251.182528 
L 154.76 251.707287 
L 155.173333 253.948671 
L 155.586667 255.178518 
L 156.413333 260.068121 
L 157.446667 270.222732 
L 158.48 278.474856 
L 158.686667 278.574269 
L 158.893333 279.310499 
L 159.306667 281.464835 
L 159.72 282.303945 
L 159.926667 282.438987 
L 160.133333 282.022152 
L 160.34 280.446603 
L 160.753333 274.08566 
L 161.373333 262.313175 
L 161.786667 248.541644 
L 162.2 224.945069 
L 162.82 189.069845 
L 163.026667 185.591803 
L 163.233333 185.7758 
L 163.646667 187.441017 
L 163.853333 190.564973 
L 164.266667 204.074495 
L 165.093333 234.612209 
L 165.3 238.49087 
L 165.713333 241.151214 
L 166.126667 243.414939 
L 166.333333 243.218524 
L 166.746667 240.830208 
L 166.953333 240.775631 
L 167.78 242.91336 
L 168.193333 243.164278 
L 168.4 243.584778 
L 169.64 250.428728 
L 170.466667 258.366431 
L 170.88 256.457175 
L 171.086667 257.25754 
L 171.706667 264.238063 
L 172.12 267.149554 
L 172.74 272.247377 
L 172.946667 272.896111 
L 173.153333 273.150171 
L 173.36 273.73369 
L 173.773333 275.448464 
L 174.393333 276.40158 
L 174.6 276.087116 
L 175.013333 273.421777 
L 175.426667 268.999419 
L 176.253333 256.539883 
L 176.666667 248.400967 
L 177.286667 232.588228 
L 178.32 213.669552 
L 178.526667 215.056282 
L 179.56 234.715948 
L 180.18 241.547343 
L 180.386667 242.267797 
L 180.593333 242.147124 
L 180.8 242.591829 
L 181.213333 244.86752 
L 181.42 245.529166 
L 181.626667 246.768776 
L 182.246667 252.042884 
L 182.453333 252.32975 
L 182.66 251.967236 
L 182.866667 252.168736 
L 183.28 255.833768 
L 183.9 261.274169 
L 184.726667 265.989787 
L 185.76 275.071687 
L 185.966667 275.920997 
L 186.173333 276.284539 
L 186.793333 276.682242 
L 187 276.403027 
L 187.62 274.500933 
L 187.826667 273.420166 
L 188.24 268.69792 
L 188.653333 258.311902 
L 189.893333 214.71998 
L 190.1 210.171015 
L 190.306667 208.932756 
L 190.513333 211.195882 
L 190.926667 217.851903 
L 191.753333 226.681318 
L 192.166667 234.455289 
L 192.373333 236.664407 
L 192.58 237.516735 
L 192.786667 237.35427 
L 193.2 235.99603 
L 193.406667 237.038288 
L 194.026667 244.280383 
L 194.853333 248.576896 
L 195.473333 254.696408 
L 195.886667 256.127032 
L 196.3 257.1449 
L 196.506667 258.408589 
L 197.126667 264.426162 
L 197.746667 267.951338 
L 197.953333 268.285205 
L 198.16 268.249453 
L 198.366667 268.564972 
L 198.573333 269.964224 
L 199.193333 275.325409 
L 199.606667 277.827301 
L 199.813333 278.32033 
L 200.02 278.104724 
L 200.226667 278.050827 
L 200.64 278.826989 
L 200.846667 278.246278 
L 201.673333 271.47428 
L 201.88 268.788361 
L 202.293333 258.452147 
L 202.706667 241.496224 
L 203.326667 210.275247 
L 203.74 198.490097 
L 203.946667 195.52565 
L 204.153333 196.355287 
L 204.98 210.301353 
L 205.186667 212.334121 
L 205.393333 215.800445 
L 206.22 236.586899 
L 206.84 244.09404 
L 207.046667 244.75541 
L 207.253333 244.21184 
L 207.873333 240.904076 
L 208.08 241.904573 
L 208.7 246.710229 
L 210.146667 254.674193 
L 211.18 260.953766 
L 211.593333 261.080887 
L 211.8 261.941895 
L 212.213333 265.334614 
L 213.04 273.883787 
L 213.246667 274.848534 
L 213.66 275.4181 
L 214.28 277.577112 
L 214.486667 277.367063 
L 215.52 272.487382 
L 215.726667 269.850866 
L 216.346667 254.894193 
L 216.966667 238.234851 
L 217.586667 217.271173 
L 217.793333 213.238077 
L 218 211.751155 
L 218.206667 212.727185 
L 219.86 231.609804 
L 220.48 242.131655 
L 220.893333 245.117129 
L 221.1 245.040308 
L 221.513333 243.937378 
L 221.72 243.760531 
L 221.926667 244.373129 
L 222.133333 246.259435 
L 222.546667 252.255129 
L 222.753333 253.564937 
L 223.166667 252.447611 
L 223.373333 253.002553 
L 223.786667 254.970148 
L 224.2 260.059546 
L 224.82 267.883409 
L 225.026667 269.209398 
L 225.233333 269.790976 
L 225.44 269.651794 
L 225.646667 269.265179 
L 225.853333 269.615823 
L 226.266667 273.532445 
L 226.68 277.894521 
L 226.886667 278.956344 
L 227.093333 279.21084 
L 227.506667 279.169424 
L 227.713333 278.879919 
L 227.92 277.684101 
L 228.333333 272.778957 
L 228.953333 262.701137 
L 229.573333 248.80327 
L 229.986667 234.560827 
L 230.813333 202.357162 
L 231.226667 194.824765 
L 231.433333 194.879201 
L 231.64 197.442008 
L 232.053333 207.95486 
L 233.086667 235.676816 
L 233.5 240.611902 
L 233.913333 243.943816 
L 234.12 243.568029 
L 234.533333 240.993987 
L 234.74 241.522031 
L 234.946667 242.53064 
L 235.153333 242.081632 
L 235.566667 239.234034 
L 235.773333 240.070929 
L 236.6 248.221049 
L 237.633333 252.75614 
L 238.666667 256.400895 
L 239.08 260.377416 
L 239.7 268.725023 
L 240.32 271.424294 
L 240.94 276.611111 
L 241.353333 279.14396 
L 241.56 279.378122 
L 241.973333 278.160137 
L 242.18 278.549946 
L 242.386667 279.185347 
L 242.593333 279.058721 
L 243.006667 277.774369 
L 243.213333 277.614855 
L 243.42 276.494656 
L 243.833333 269.425977 
L 244.453333 254.806531 
L 244.866667 235.627607 
L 245.9 178.541117 
L 246.106667 178.185719 
L 246.313333 183.590816 
L 247.346667 226.713185 
L 247.553333 228.967946 
L 247.966667 230.252282 
L 248.173333 231.653171 
L 248.586667 238.184673 
L 249 245.733389 
L 249.206667 247.618008 
L 249.413333 247.8714 
L 249.826667 245.622667 
L 250.86 240.125444 
L 251.066667 240.367751 
L 251.273333 241.312162 
L 252.306667 249.472148 
L 252.926667 255.70407 
L 253.753333 262.076334 
L 254.166667 262.409917 
L 254.373333 263.116223 
L 254.786667 266.667307 
L 255.82 277.113668 
L 256.026667 277.888261 
L 256.233333 277.729722 
L 256.44 277.251459 
L 256.646667 277.171039 
L 256.853333 277.323016 
L 257.06 277.118452 
L 257.473333 276.135321 
L 257.68 275.239311 
L 257.886667 273.372246 
L 258.3 266.256097 
L 259.126667 249.354164 
L 259.54 232.215982 
L 260.16 204.510875 
L 260.366667 200.022313 
L 260.573333 198.482649 
L 260.78 199.513439 
L 260.986667 203.747502 
L 261.606667 226.367779 
L 262.226667 236.170762 
L 262.64 243.102806 
L 262.846667 243.266832 
L 263.053333 242.963272 
L 263.26 243.854534 
L 263.673333 247.609631 
L 263.88 247.649199 
L 264.293333 244.769298 
L 264.5 244.499197 
L 264.706667 245.083976 
L 264.913333 246.167738 
L 265.74 252.571685 
L 265.946667 253.306846 
L 266.36 259.867084 
L 266.773333 265.530782 
L 266.98 266.503151 
L 267.6 267.690899 
L 267.806667 269.342417 
L 268.426667 277.69494 
L 268.84 280.399317 
L 269.253333 282.143986 
L 269.666667 282.762332 
L 269.873333 282.760283 
L 270.08 282.224831 
L 270.7 278.772145 
L 271.113333 274.525119 
L 271.526667 266.936535 
L 271.94 253.647642 
L 272.353333 226.254949 
L 272.973333 177.116351 
L 273.386667 163.455195 
L 273.593333 163.66127 
L 273.8 169.340098 
L 274.626667 205.958388 
L 276.073333 234.875432 
L 276.28 236.744046 
L 276.486667 237.262336 
L 276.693333 237.349208 
L 276.9 236.992556 
L 277.106667 235.812189 
L 277.726667 230.412886 
L 277.933333 229.263215 
L 278.346667 225.508696 
L 278.553333 225.438983 
L 278.966667 228.953269 
L 279.586667 236.19209 
L 280 237.230291 
L 280.826667 243.448586 
L 281.446667 244.689124 
L 282.48 249.30606 
L 283.306667 251.589309 
L 283.72 253.914213 
L 284.34 259.633242 
L 284.546667 259.890862 
L 284.753333 259.749225 
L 284.96 260.603517 
L 285.786667 267.767346 
L 285.993333 268.773256 
L 286.406667 269.191032 
L 286.613333 270.111147 
L 287.026667 273.911252 
L 287.233333 274.684478 
L 287.44 274.164593 
L 287.853333 272.421574 
L 288.06 272.122822 
L 288.266667 271.540702 
L 288.886667 267.557885 
L 289.093333 265.892742 
L 289.92 253.190271 
L 290.953333 237.612398 
L 291.366667 234.334085 
L 291.78 229.783274 
L 291.986667 229.357848 
L 292.193333 231.378255 
L 292.813333 240.447753 
L 293.02 240.680373 
L 293.226667 240.745298 
L 293.433333 242.117543 
L 293.846667 245.737248 
L 294.053333 246.325464 
L 294.673333 249.94331 
L 295.086667 248.620118 
L 295.293333 249.201486 
L 296.12 256.499539 
L 296.74 260.301559 
L 297.36 267.873649 
L 298.186667 271.96005 
L 298.393333 272.531061 
L 298.806667 275.228261 
L 299.013333 276.485139 
L 299.22 277.00294 
L 299.426667 277.195801 
L 299.633333 277.813348 
L 300.046667 279.593774 
L 300.46 279.852505 
L 300.666667 279.761091 
L 300.873333 278.82211 
L 301.286667 273.222184 
L 301.7 261.309751 
L 302.733333 213.899048 
L 303.146667 195.085227 
L 303.353333 192.781438 
L 303.56 192.865226 
L 303.766667 193.728813 
L 304.18 198.375676 
L 304.593333 206.070154 
L 305.626667 238.429194 
L 305.833333 240.997098 
L 306.04 241.695016 
L 306.246667 240.935165 
L 306.66 238.695152 
L 306.866667 238.897702 
L 307.486667 243.071275 
L 307.693333 242.820799 
L 307.9 241.998357 
L 308.106667 241.71246 
L 308.313333 242.406838 
L 309.14 247.268186 
L 309.553333 249.59846 
L 310.586667 257.887817 
L 310.793333 257.68294 
L 311 257.067591 
L 311.206667 256.829179 
L 311.413333 257.421477 
L 313.273333 271.891909 
L 313.48 272.215504 
L 313.686667 271.59562 
L 313.893333 270.591284 
L 314.1 270.186736 
L 314.513333 271.152281 
L 314.926667 271.993832 
L 315.133333 271.942627 
L 315.34 270.705769 
L 316.58 257.218999 
L 316.993333 255.005155 
L 317.613333 246.317815 
L 318.233333 236.600326 
L 318.646667 230.59287 
L 319.06 228.332519 
L 319.266667 228.059167 
L 319.473333 229.005635 
L 319.886667 235.236963 
L 320.3 240.851736 
L 320.92 242.338383 
L 321.746667 247.820417 
L 321.953333 248.303825 
L 322.16 249.746121 
L 322.78 259.167252 
L 322.986667 260.216267 
L 323.4 260.182018 
L 323.606667 261.061969 
L 325.26 275.874507 
L 326.086667 280.456422 
L 326.5 282.381983 
L 326.706667 282.569919 
L 327.12 281.505814 
L 327.533333 279.862517 
L 327.74 277.825424 
L 327.946667 273.695811 
L 328.36 257.469445 
L 329.806667 182.616287 
L 330.013333 177.762565 
L 330.22 176.643236 
L 330.426667 180.246705 
L 331.666667 227.769611 
L 332.08 236.182608 
L 332.286667 238.58792 
L 332.493333 238.956794 
L 332.7 238.693793 
L 333.113333 239.882418 
L 333.32 239.105349 
L 333.733333 236.584801 
L 334.146667 237.435707 
L 334.353333 237.260575 
L 334.56 236.782727 
L 334.766667 236.592018 
L 334.973333 237.36437 
L 335.386667 240.377974 
L 335.593333 240.616638 
L 335.8 240.250933 
L 336.006667 240.472411 
L 336.42 244.111575 
L 337.246667 252.518347 
L 338.073333 255.014579 
L 338.28 256.3884 
L 339.106667 266.08087 
L 339.313333 265.869038 
L 339.52 265.962632 
L 339.726667 266.99322 
L 340.553333 273.834032 
L 341.173333 276.041381 
L 341.38 275.587777 
L 342 271.851127 
L 342.206667 271.544137 
L 342.413333 271.023361 
L 342.826667 268.821991 
L 343.24 264.406907 
L 343.653333 256.605837 
L 345.1 223.916563 
L 345.306667 222.931579 
L 345.513333 223.222472 
L 345.926667 224.927362 
L 346.133333 224.843778 
L 346.34 225.208704 
L 346.546667 227.215235 
L 347.373333 240.769679 
L 347.58 242.214364 
L 347.786667 242.563405 
L 347.993333 242.344867 
L 348.2 242.568639 
L 348.613333 244.799966 
L 348.82 244.64745 
L 349.026667 243.779505 
L 349.233333 244.083541 
L 350.06 253.54705 
L 350.266667 253.51593 
L 350.473333 252.833008 
L 350.68 252.928759 
L 350.886667 254.72869 
L 351.713333 266.053078 
L 352.126667 268.997556 
L 352.333333 269.452269 
L 352.54 270.403191 
L 353.16 277.4922 
L 353.366667 278.033466 
L 353.78 276.385274 
L 354.193333 274.554616 
L 354.4 274.235771 
L 354.606667 275.021426 
L 355.02 277.241587 
L 355.226667 276.086861 
L 355.64 268.886389 
L 356.466667 248.76984 
L 356.88 232.288784 
L 357.293333 215.415086 
L 357.5 212.140262 
L 358.12 210.549787 
L 358.326667 210.894234 
L 358.74 218.171549 
L 359.566667 236.610117 
L 360.186667 240.422186 
L 360.6 244.652746 
L 360.806667 245.345569 
L 361.22 243.869996 
L 361.426667 244.221322 
L 361.84 246.722445 
L 362.253333 247.275483 
L 362.46 248.49216 
L 363.906667 265.182388 
L 364.733333 268.211796 
L 365.146667 270.727351 
L 365.973333 278.312331 
L 366.386667 278.686781 
L 366.8 279.618713 
L 367.006667 279.442734 
L 367.42 277.639677 
L 367.833333 274.405831 
L 368.246667 269.432523 
L 368.66 261.942609 
L 369.073333 248.686734 
L 369.9 214.718101 
L 370.313333 208.328029 
L 370.933333 202.413322 
L 371.14 204.180234 
L 371.966667 219.734367 
L 372.793333 236.977763 
L 373.206667 241.275472 
L 373.62 244.105949 
L 373.826667 244.787312 
L 374.033333 244.150305 
L 374.24 243.006666 
L 374.446667 242.50372 
L 375.273333 242.996893 
L 375.48 243.701835 
L 375.893333 246.779108 
L 376.72 254.654653 
L 376.926667 255.094057 
L 377.133333 255.106888 
L 377.34 255.33837 
L 377.546667 256.479826 
L 378.786667 268.464538 
L 379.2 271.158244 
L 379.82 276.752519 
L 380.026667 277.28788 
L 380.233333 276.814082 
L 380.646667 274.579593 
L 381.06 271.90688 
L 381.266667 271.546492 
L 381.473333 271.450864 
L 381.68 270.639231 
L 381.886667 268.086346 
L 383.126667 241.216809 
L 383.54 226.555364 
L 383.953333 209.764853 
L 384.16 206.735473 
L 384.366667 207.982343 
L 385.193333 222.907081 
L 385.813333 236.499752 
L 386.226667 241.403172 
L 386.64 243.733624 
L 386.846667 244.261802 
L 387.26 244.227011 
L 387.466667 244.67263 
L 388.913333 251.400692 
L 389.326667 255.130715 
L 390.153333 264.211923 
L 390.566667 266.66762 
L 391.6 275.980105 
L 391.806667 275.729672 
L 392.013333 275.004997 
L 392.22 275.113476 
L 392.633333 278.291787 
L 393.046667 280.915409 
L 393.253333 281.079901 
L 393.46 280.544637 
L 393.873333 278.374296 
L 394.286667 275.284676 
L 394.7 269.323165 
L 395.113333 258.336694 
L 395.526667 237.046592 
L 396.146667 198.635552 
L 396.353333 193.890912 
L 396.56 191.846035 
L 396.766667 190.998785 
L 396.973333 193.13167 
L 398.006667 223.228436 
L 398.42 228.822155 
L 398.833333 234.248285 
L 399.453333 245.247445 
L 399.66 245.890318 
L 400.073333 243.771479 
L 400.486667 241.986681 
L 401.106667 237.294496 
L 401.313333 237.932205 
L 401.933333 245.138749 
L 402.76 253.772447 
L 403.173333 255.844307 
L 403.793333 257.086879 
L 404.206667 260.559471 
L 404.62 264.345328 
L 405.24 265.95672 
L 406.273333 274.571046 
L 406.686667 276.197721 
L 406.893333 276.440907 
L 407.1 275.883251 
L 407.72 271.561751 
L 408.133333 272.9721 
L 408.34 271.451829 
L 408.96 257.018241 
L 409.993333 231.798512 
L 410.613333 213.97853 
L 410.82 211.043566 
L 411.026667 210.602092 
L 411.233333 212.357219 
L 411.646667 220.026809 
L 412.266667 233.621164 
L 413.506667 238.840945 
L 414.126667 244.281785 
L 414.333333 244.362524 
L 414.54 244.224724 
L 414.746667 244.952778 
L 416.4 257.208099 
L 416.813333 262.568259 
L 417.433333 266.516896 
L 417.64 268.071132 
L 417.846667 268.588979 
L 418.053333 268.656681 
L 418.26 269.505162 
L 418.673333 271.648558 
L 418.88 271.49462 
L 419.086667 271.595767 
L 419.293333 272.940567 
L 419.913333 279.24151 
L 420.326667 281.345118 
L 420.533333 281.242276 
L 420.74 280.158788 
L 421.36 274.237735 
L 421.773333 268.735363 
L 422.393333 252.062908 
L 422.806667 234.702728 
L 423.22 215.006516 
L 423.633333 205.850087 
L 424.253333 196.9881 
L 424.46 196.044804 
L 424.666667 198.333379 
L 426.113333 237.318136 
L 426.526667 242.774643 
L 426.94 246.184782 
L 427.146667 246.832308 
L 427.353333 246.113876 
L 427.973333 240.949185 
L 428.386667 239.069016 
L 428.593333 239.419219 
L 429.006667 243.088477 
L 429.42 246.860814 
L 429.833333 248.642744 
L 430.66 255.017158 
L 431.486667 260.955929 
L 431.693333 261.18124 
L 432.106667 260.15003 
L 432.313333 260.143663 
L 432.52 260.677637 
L 432.726667 262.032462 
L 433.76 273.767454 
L 433.966667 274.488681 
L 434.173333 274.364996 
L 434.793333 271.708217 
L 435 271.628071 
L 435.206667 271.362082 
L 435.413333 270.034628 
L 435.826667 265.978171 
L 436.24 262.906878 
L 436.653333 255.169373 
L 437.066667 248.337961 
L 437.686667 245.036063 
L 437.893333 243.306726 
L 438.306667 236.446195 
L 438.72 228.5375 
L 438.926667 226.824071 
L 439.133333 226.982472 
L 439.546667 231.435003 
L 439.96 236.147966 
L 440.373333 238.264392 
L 440.786667 239.324009 
L 440.993333 240.516063 
L 442.233333 251.47327 
L 442.646667 252.579506 
L 442.853333 252.986069 
L 443.06 254.015879 
L 443.473333 258.481524 
L 444.093333 265.591635 
L 445.54 272.484106 
L 446.366667 280.596078 
L 446.573333 280.801758 
L 446.78 280.17411 
L 447.4 276.869918 
L 448.02 275.866912 
L 448.226667 274.287948 
L 448.64 266.220533 
L 449.26 248.509551 
L 450.5 198.954817 
L 450.706667 196.597613 
L 450.913333 196.353547 
L 451.12 198.063708 
L 452.153333 217.316119 
L 452.98 238.85785 
L 453.393333 242.072217 
L 453.6 242.711005 
L 453.806667 242.344156 
L 454.22 240.370662 
L 454.426667 240.779097 
L 454.84 243.320059 
L 455.046667 243.894183 
L 455.253333 244.135583 
L 455.873333 246.358786 
L 456.286667 244.547598 
L 456.493333 245.749102 
L 456.906667 249.211743 
L 457.733333 253.266244 
L 458.353333 259.700386 
L 458.56 260.65349 
L 459.18 262.091166 
L 459.593333 264.442426 
L 460.213333 269.554878 
L 460.42 269.98719 
L 460.833333 268.84173 
L 461.04 269.709491 
L 461.66 275.736661 
L 461.866667 275.594739 
L 462.073333 275.254346 
L 462.486667 275.231237 
L 463.313333 272.713668 
L 463.52 271.028084 
L 463.933333 265.251879 
L 464.346667 255.962237 
L 464.966667 238.805754 
L 466.206667 218.762741 
L 466.413333 217.559931 
L 466.62 217.120774 
L 466.826667 218.027503 
L 467.24 222.935935 
L 468.686667 242.831549 
L 469.1 245.87342 
L 469.306667 246.22446 
L 469.513333 246.261774 
L 469.926667 245.645208 
L 470.133333 246.378202 
L 471.166667 256.208861 
L 471.58 258.046894 
L 472.2 262.411404 
L 472.406667 262.598475 
L 472.613333 262.374734 
L 472.82 262.625554 
L 473.026667 263.969374 
L 474.06 274.258424 
L 475.506667 278.116068 
L 475.713333 277.612896 
L 475.92 275.84172 
L 476.953333 260.06139 
L 477.366667 248.106752 
L 478.193333 218.938134 
L 478.606667 211.647758 
L 478.813333 209.643808 
L 479.02 210.509047 
L 479.64 219.758316 
L 480.053333 223.321256 
L 480.466667 226.3422 
L 480.673333 227.073929 
L 480.88 229.034086 
L 482.12 248.643381 
L 482.326667 249.27657 
L 482.74 246.794193 
L 482.946667 246.714977 
L 483.36 249.990509 
L 483.773333 253.164105 
L 484.186667 255.417203 
L 484.6 258.640048 
L 484.806667 259.471324 
L 485.22 259.566573 
L 485.426667 260.420672 
L 487.493333 277.784983 
L 487.906667 279.104572 
L 488.113333 279.926692 
L 488.526667 282.229266 
L 488.733333 282.209021 
L 488.94 281.486096 
L 489.353333 278.494852 
L 489.766667 272.541949 
L 490.18 262.176335 
L 490.8 236.587819 
L 491.833333 190.240817 
L 492.04 188.258656 
L 492.246667 189.721792 
L 492.66 202.549335 
L 493.073333 216.95512 
L 494.106667 238.132741 
L 494.52 241.609114 
L 494.933333 244.079162 
L 495.14 243.052825 
L 495.553333 239.132286 
L 495.76 239.336513 
L 496.38 243.479086 
L 496.793333 244.045035 
L 497 244.184028 
L 497.206667 244.462949 
L 497.413333 245.223295 
L 497.826667 247.9408 
L 498.653333 255.525948 
L 498.86 255.828218 
L 499.273333 257.218084 
L 499.686667 259.090941 
L 500.306667 263.724319 
L 501.546667 273.768116 
L 501.96 273.410439 
L 502.166667 273.60413 
L 502.58 274.824597 
L 502.993333 276.181813 
L 503.2 276.394688 
L 503.406667 276.193517 
L 503.613333 275.61525 
L 504.026667 273.170682 
L 504.44 269.339928 
L 504.853333 262.22469 
L 505.266667 249.145984 
L 506.093333 219.670852 
L 506.506667 211.241215 
L 506.713333 210.573104 
L 507.126667 212.301736 
L 507.333333 212.820497 
L 507.54 215.118263 
L 508.366667 233.73761 
L 509.606667 246.190744 
L 509.813333 246.521333 
L 510.226667 246.170503 
L 510.433333 246.241953 
L 510.64 246.751631 
L 511.673333 251.395329 
L 511.88 252.033642 
L 512.293333 255.280034 
L 512.913333 262.56434 
L 513.326667 267.829682 
L 514.98 277.170031 
L 515.393333 278.279338 
L 515.6 278.721664 
L 516.013333 280.272746 
L 516.22 280.318407 
L 516.426667 279.214968 
L 517.046667 273.290763 
L 517.46 264.911761 
L 518.08 243.010481 
L 518.906667 215.065956 
L 519.32 211.577432 
L 519.526667 209.894045 
L 520.146667 200.718131 
L 520.353333 201.127436 
L 520.56 204.069901 
L 520.973333 216.080617 
L 521.593333 235.632191 
L 521.8 239.265121 
L 522.006667 240.525874 
L 522.213333 240.065283 
L 522.42 239.094105 
L 522.626667 238.901394 
L 522.833333 240.07038 
L 523.246667 244.033577 
L 523.453333 244.80539 
L 523.866667 244.32996 
L 524.486667 245.352649 
L 524.693333 246.291873 
L 525.313333 251.386552 
L 525.726667 252.484045 
L 526.14 253.739614 
L 526.346667 253.642637 
L 526.76 251.348959 
L 526.966667 251.279169 
L 527.173333 252.64655 
L 527.586667 257.536446 
L 528.206667 265.483204 
L 528.826667 269.447599 
L 530.066667 279.622726 
L 530.273333 279.811309 
L 530.686667 277.523985 
L 531.306667 274.190615 
L 531.72 268.84689 
L 532.133333 261.878928 
L 532.96 240.281331 
L 533.786667 217.979237 
L 534.2 213.383618 
L 534.406667 214.024041 
L 534.82 219.66486 
L 535.646667 235.010788 
L 535.853333 239.330738 
L 536.06 241.018861 
L 536.266667 240.876386 
L 536.473333 241.087667 
L 537.093333 243.894713 
L 537.713333 250.268426 
L 537.92 250.007009 
L 538.333333 247.994135 
L 538.54 248.947681 
L 539.366667 255.681902 
L 540.4 272.73385 
L 540.813333 274.538523 
L 542.053333 279.850964 
L 542.466667 283.025064 
L 542.673333 283.622523 
L 542.88 283.503843 
L 543.293333 282.759075 
L 543.5 282.074726 
L 543.706667 280.459801 
L 544.12 273.406053 
L 544.74 254.294104 
L 545.153333 232.470378 
L 545.98 178.97926 
L 546.186667 172.816459 
L 546.393333 170.17195 
L 546.6 171.214189 
L 547.013333 182.219183 
L 547.633333 210.360238 
L 548.046667 228.686241 
L 548.46 237.412923 
L 548.666667 238.607389 
L 548.873333 238.926572 
L 549.493333 240.889739 
L 549.906667 239.317036 
L 550.113333 238.153547 
L 550.733333 232.734671 
L 550.94 232.893325 
L 551.353333 233.470402 
L 551.56 234.698017 
L 552.18 241.629864 
L 552.386667 242.63567 
L 552.8 243.30407 
L 553.213333 244.911834 
L 553.833333 248.833423 
L 554.866667 256.702059 
L 555.486667 260.909312 
L 556.106667 267.950649 
L 556.52 269.774507 
L 556.933333 271.019608 
L 557.346667 270.590281 
L 557.553333 271.460392 
L 557.966667 274.597568 
L 558.173333 274.853428 
L 558.38 274.327554 
L 558.793333 272.259564 
L 559.413333 267.893246 
L 560.653333 251.844268 
L 561.066667 241.017053 
L 561.686667 223.385763 
L 561.893333 221.932384 
L 562.513333 223.328887 
L 562.72 223.63722 
L 562.926667 225.354896 
L 564.373333 242.804229 
L 564.58 242.901873 
L 564.786667 245.21639 
L 564.993333 252.691365 
L 565.2 264.753479 
L 565.2 264.753479 
" clip-path="url(#p3c544b21f5)" style="fill: none; stroke: #000000; stroke-width: 1.5; stroke-linecap: square"/>
   </g>
   <g id="line2d_14">
    <defs>
     <path id="m59f76a5dcf" d="M 0 3 
C 0.795609 3 1.55874 2.683901 2.12132 2.12132 
C 2.683901 1.55874 3 0.795609 3 0 
C 3 -0.795609 2.683901 -1.55874 2.12132 -2.12132 
C 1.55874 -2.683901 0.795609 -3 0 -3 
C -0.795609 -3 -1.55874 -2.683901 -2.12132 -2.12132 
C -2.683901 -1.55874 -3 -0.795609 -3 0 
C -3 0.795609 -2.683901 1.55874 -2.12132 2.12132 
C -1.55874 2.683901 -0.795609 3 0 3 
z
" style="stroke: #ff0000"/>
    </defs>
    <g clip-path="url(#p3c544b21f5)">
     <use xlink:href="#m59f76a5dcf" x="-1" y="154.339796" style="fill: #ff0000; stroke: #ff0000"/>
     <use xlink:href="#m59f76a5dcf" x="27.866667" y="185.284962" style="fill: #ff0000; stroke: #ff0000"/>
     <use xlink:href="#m59f76a5dcf" x="42.953333" y="198.095088" style="fill: #ff0000; stroke: #ff0000"/>
     <use xlink:href="#m59f76a5dcf" x="57.42" y="217.105678" style="fill: #ff0000; stroke: #ff0000"/>
     <use xlink:href="#m59f76a5dcf" x="69.82" y="204.045579" style="fill: #ff0000; stroke: #ff0000"/>
     <use xlink:href="#m59f76a5dcf" x="95.24" y="210.717484" style="fill: #ff0000; stroke: #ff0000"/>
     <use xlink:href="#m59f76a5dcf" x="108.88" y="201.176175" style="fill: #ff0000; stroke: #ff0000"/>
     <use xlink:href="#m59f76a5dcf" x="135.126667" y="182.201072" style="fill: #ff0000; stroke: #ff0000"/>
     <use xlink:href="#m59f76a5dcf" x="163.026667" y="185.591803" style="fill: #ff0000; stroke: #ff0000"/>
     <use xlink:href="#m59f76a5dcf" x="178.32" y="213.669552" style="fill: #ff0000; stroke: #ff0000"/>
     <use xlink:href="#m59f76a5dcf" x="190.306667" y="208.932756" style="fill: #ff0000; stroke: #ff0000"/>
     <use xlink:href="#m59f76a5dcf" x="203.946667" y="195.52565" style="fill: #ff0000; stroke: #ff0000"/>
     <use xlink:href="#m59f76a5dcf" x="218" y="211.751155" style="fill: #ff0000; stroke: #ff0000"/>
     <use xlink:href="#m59f76a5dcf" x="231.226667" y="194.824765" style="fill: #ff0000; stroke: #ff0000"/>
     <use xlink:href="#m59f76a5dcf" x="246.106667" y="178.185719" style="fill: #ff0000; stroke: #ff0000"/>
     <use xlink:href="#m59f76a5dcf" x="260.573333" y="198.482649" style="fill: #ff0000; stroke: #ff0000"/>
     <use xlink:href="#m59f76a5dcf" x="273.386667" y="163.455195" style="fill: #ff0000; stroke: #ff0000"/>
     <use xlink:href="#m59f76a5dcf" x="303.353333" y="192.781438" style="fill: #ff0000; stroke: #ff0000"/>
     <use xlink:href="#m59f76a5dcf" x="330.22" y="176.643236" style="fill: #ff0000; stroke: #ff0000"/>
     <use xlink:href="#m59f76a5dcf" x="358.12" y="210.549787" style="fill: #ff0000; stroke: #ff0000"/>
     <use xlink:href="#m59f76a5dcf" x="370.933333" y="202.413322" style="fill: #ff0000; stroke: #ff0000"/>
     <use xlink:href="#m59f76a5dcf" x="384.16" y="206.735473" style="fill: #ff0000; stroke: #ff0000"/>
     <use xlink:href="#m59f76a5dcf" x="396.766667" y="190.998785" style="fill: #ff0000; stroke: #ff0000"/>
     <use xlink:href="#m59f76a5dcf" x="411.026667" y="210.602092" style="fill: #ff0000; stroke: #ff0000"/>
     <use xlink:href="#m59f76a5dcf" x="424.46" y="196.044804" style="fill: #ff0000; stroke: #ff0000"/>
     <use xlink:href="#m59f76a5dcf" x="450.913333" y="196.353547" style="fill: #ff0000; stroke: #ff0000"/>
     <use xlink:href="#m59f76a5dcf" x="466.62" y="217.120774" style="fill: #ff0000; stroke: #ff0000"/>
     <use xlink:href="#m59f76a5dcf" x="478.813333" y="209.643808" style="fill: #ff0000; stroke: #ff0000"/>
     <use xlink:href="#m59f76a5dcf" x="492.04" y="188.258656" style="fill: #ff0000; stroke: #ff0000"/>
     <use xlink:href="#m59f76a5dcf" x="506.713333" y="210.573104" style="fill: #ff0000; stroke: #ff0000"/>
     <use xlink:href="#m59f76a5dcf" x="520.146667" y="200.718131" style="fill: #ff0000; stroke: #ff0000"/>
     <use xlink:href="#m59f76a5dcf" x="534.2" y="213.383618" style="fill: #ff0000; stroke: #ff0000"/>
     <use xlink:href="#m59f76a5dcf" x="546.393333" y="170.17195" style="fill: #ff0000; stroke: #ff0000"/>
    </g>
   </g>
   <g id="line2d_15">
    <path d="M 7.2 217.861092 
L 565.2 217.861092 
" clip-path="url(#p3c544b21f5)" style="fill: none; stroke-dasharray: 5.55,2.4; stroke-dashoffset: 0; stroke: #808080; stroke-width: 1.5"/>
   </g>
   <g id="line2d_16">
    <path d="M 7.2 247.709961 
L 565.2 247.709961 
" clip-path="url(#p3c544b21f5)" style="fill: none; stroke-dasharray: 5.55,2.4; stroke-dashoffset: 0; stroke: #0000ff; stroke-width: 1.5"/>
   </g>
   <g id="line2d_17">
    <path d="M 7.2 149.95834 
L 565.2 149.95834 
" clip-path="url(#p3c544b21f5)" style="fill: none; stroke-dasharray: 5.55,2.4; stroke-dashoffset: 0; stroke: #ff0000; stroke-width: 1.5"/>
   </g>
   <g id="patch_3">
    <path d="M 7.2 288.199219 
L 7.2 10.999219 
" style="fill: none; stroke: #000000; stroke-width: 0.8; stroke-linejoin: miter; stroke-linecap: square"/>
   </g>
   <g id="patch_4">
    <path d="M 565.2 288.199219 
L 565.2 10.999219 
" style="fill: none; stroke: #000000; stroke-width: 0.8; stroke-linejoin: miter; stroke-linecap: square"/>
   </g>
   <g id="patch_5">
    <path d="M 7.2 288.199219 
L 565.2 288.199219 
" style="fill: none; stroke: #000000; stroke-width: 0.8; stroke-linejoin: miter; stroke-linecap: square"/>
   </g>
   <g id="patch_6">
    <path d="M 7.2 10.999219 
L 565.2 10.999219 
" style="fill: none; stroke: #000000; stroke-width: 0.8; stroke-linejoin: miter; stroke-linecap: square"/>
   </g>
   <g id="legend_1">
    <g id="patch_7">
     <path d="M 475.907812 63.033594 
L 558.2 63.033594 
Q 560.2 63.033594 560.2 61.033594 
L 560.2 17.999219 
Q 560.2 15.999219 558.2 15.999219 
L 475.907812 15.999219 
Q 473.907812 15.999219 473.907812 17.999219 
L 473.907812 61.033594 
Q 473.907812 63.033594 475.907812 63.033594 
z
" style="fill: #ffffff; opacity: 0.8; stroke: #cccccc; stroke-linejoin: miter"/>
    </g>
    <g id="line2d_18">
     <path d="M 477.907812 24.097656 
L 487.907812 24.097656 
L 497.907812 24.097656 
" style="fill: none; stroke-dasharray: 5.55,2.4; stroke-dashoffset: 0; stroke: #808080; stroke-width: 1.5"/>
    </g>
    <g id="text_15">
     <!-- Threshold -->
     <g transform="translate(505.907812 27.597656) scale(0.1 -0.1)">
      <defs>
       <path id="DejaVuSans-68" d="M 3513 2113 
L 3513 0 
L 2938 0 
L 2938 2094 
Q 2938 2591 2744 2837 
Q 2550 3084 2163 3084 
Q 1697 3084 1428 2787 
Q 1159 2491 1159 1978 
L 1159 0 
L 581 0 
L 581 4863 
L 1159 4863 
L 1159 2956 
Q 1366 3272 1645 3428 
Q 1925 3584 2291 3584 
Q 2894 3584 3203 3211 
Q 3513 2838 3513 2113 
z
" transform="scale(0.015625)"/>
       <path id="DejaVuSans-72" d="M 2631 2963 
Q 2534 3019 2420 3045 
Q 2306 3072 2169 3072 
Q 1681 3072 1420 2755 
Q 1159 2438 1159 1844 
L 1159 0 
L 581 0 
L 581 3500 
L 1159 3500 
L 1159 2956 
Q 1341 3275 1631 3429 
Q 1922 3584 2338 3584 
Q 2397 3584 2469 3576 
Q 2541 3569 2628 3553 
L 2631 2963 
z
" transform="scale(0.015625)"/>
       <path id="DejaVuSans-6c" d="M 603 4863 
L 1178 4863 
L 1178 0 
L 603 0 
L 603 4863 
z
" transform="scale(0.015625)"/>
       <path id="DejaVuSans-64" d="M 2906 2969 
L 2906 4863 
L 3481 4863 
L 3481 0 
L 2906 0 
L 2906 525 
Q 2725 213 2448 61 
Q 2172 -91 1784 -91 
Q 1150 -91 751 415 
Q 353 922 353 1747 
Q 353 2572 751 3078 
Q 1150 3584 1784 3584 
Q 2172 3584 2448 3432 
Q 2725 3281 2906 2969 
z
M 947 1747 
Q 947 1113 1208 752 
Q 1469 391 1925 391 
Q 2381 391 2643 752 
Q 2906 1113 2906 1747 
Q 2906 2381 2643 2742 
Q 2381 3103 1925 3103 
Q 1469 3103 1208 2742 
Q 947 2381 947 1747 
z
" transform="scale(0.015625)"/>
      </defs>
      <use xlink:href="#DejaVuSans-54"/>
      <use xlink:href="#DejaVuSans-68" x="61.083984"/>
      <use xlink:href="#DejaVuSans-72" x="124.462891"/>
      <use xlink:href="#DejaVuSans-65" x="163.326172"/>
      <use xlink:href="#DejaVuSans-73" x="224.849609"/>
      <use xlink:href="#DejaVuSans-68" x="276.949219"/>
      <use xlink:href="#DejaVuSans-6f" x="340.328125"/>
      <use xlink:href="#DejaVuSans-6c" x="401.509766"/>
      <use xlink:href="#DejaVuSans-64" x="429.292969"/>
     </g>
    </g>
    <g id="line2d_19">
     <path d="M 477.907812 38.775781 
L 487.907812 38.775781 
L 497.907812 38.775781 
" style="fill: none; stroke-dasharray: 5.55,2.4; stroke-dashoffset: 0; stroke: #0000ff; stroke-width: 1.5"/>
    </g>
    <g id="text_16">
     <!-- Baseline -->
     <g transform="translate(505.907812 42.275781) scale(0.1 -0.1)">
      <defs>
       <path id="DejaVuSans-42" d="M 1259 2228 
L 1259 519 
L 2272 519 
Q 2781 519 3026 730 
Q 3272 941 3272 1375 
Q 3272 1813 3026 2020 
Q 2781 2228 2272 2228 
L 1259 2228 
z
M 1259 4147 
L 1259 2741 
L 2194 2741 
Q 2656 2741 2882 2914 
Q 3109 3088 3109 3444 
Q 3109 3797 2882 3972 
Q 2656 4147 2194 4147 
L 1259 4147 
z
M 628 4666 
L 2241 4666 
Q 2963 4666 3353 4366 
Q 3744 4066 3744 3513 
Q 3744 3084 3544 2831 
Q 3344 2578 2956 2516 
Q 3422 2416 3680 2098 
Q 3938 1781 3938 1306 
Q 3938 681 3513 340 
Q 3088 0 2303 0 
L 628 0 
L 628 4666 
z
" transform="scale(0.015625)"/>
       <path id="DejaVuSans-61" d="M 2194 1759 
Q 1497 1759 1228 1600 
Q 959 1441 959 1056 
Q 959 750 1161 570 
Q 1363 391 1709 391 
Q 2188 391 2477 730 
Q 2766 1069 2766 1631 
L 2766 1759 
L 2194 1759 
z
M 3341 1997 
L 3341 0 
L 2766 0 
L 2766 531 
Q 2569 213 2275 61 
Q 1981 -91 1556 -91 
Q 1019 -91 701 211 
Q 384 513 384 1019 
Q 384 1609 779 1909 
Q 1175 2209 1959 2209 
L 2766 2209 
L 2766 2266 
Q 2766 2663 2505 2880 
Q 2244 3097 1772 3097 
Q 1472 3097 1187 3025 
Q 903 2953 641 2809 
L 641 3341 
Q 956 3463 1253 3523 
Q 1550 3584 1831 3584 
Q 2591 3584 2966 3190 
Q 3341 2797 3341 1997 
z
" transform="scale(0.015625)"/>
      </defs>
      <use xlink:href="#DejaVuSans-42"/>
      <use xlink:href="#DejaVuSans-61" x="68.603516"/>
      <use xlink:href="#DejaVuSans-73" x="129.882812"/>
      <use xlink:href="#DejaVuSans-65" x="181.982422"/>
      <use xlink:href="#DejaVuSans-6c" x="243.505859"/>
      <use xlink:href="#DejaVuSans-69" x="271.289062"/>
      <use xlink:href="#DejaVuSans-6e" x="299.072266"/>
      <use xlink:href="#DejaVuSans-65" x="362.451172"/>
     </g>
    </g>
    <g id="line2d_20">
     <path d="M 477.907812 53.453906 
L 487.907812 53.453906 
L 497.907812 53.453906 
" style="fill: none; stroke-dasharray: 5.55,2.4; stroke-dashoffset: 0; stroke: #ff0000; stroke-width: 1.5"/>
    </g>
    <g id="text_17">
     <!-- Burst Max -->
     <g transform="translate(505.907812 56.953906) scale(0.1 -0.1)">
      <defs>
       <path id="DejaVuSans-4d" d="M 628 4666 
L 1569 4666 
L 2759 1491 
L 3956 4666 
L 4897 4666 
L 4897 0 
L 4281 0 
L 4281 4097 
L 3078 897 
L 2444 897 
L 1241 4097 
L 1241 0 
L 628 0 
L 628 4666 
z
" transform="scale(0.015625)"/>
       <path id="DejaVuSans-78" d="M 3513 3500 
L 2247 1797 
L 3578 0 
L 2900 0 
L 1881 1375 
L 863 0 
L 184 0 
L 1544 1831 
L 300 3500 
L 978 3500 
L 1906 2253 
L 2834 3500 
L 3513 3500 
z
" transform="scale(0.015625)"/>
      </defs>
      <use xlink:href="#DejaVuSans-42"/>
      <use xlink:href="#DejaVuSans-75" x="68.603516"/>
      <use xlink:href="#DejaVuSans-72" x="131.982422"/>
      <use xlink:href="#DejaVuSans-73" x="173.095703"/>
      <use xlink:href="#DejaVuSans-74" x="225.195312"/>
      <use xlink:href="#DejaVuSans-20" x="264.404297"/>
      <use xlink:href="#DejaVuSans-4d" x="296.191406"/>
      <use xlink:href="#DejaVuSans-61" x="382.470703"/>
      <use xlink:href="#DejaVuSans-78" x="443.75"/>
     </g>
    </g>
   </g>
  </g>
 </g>
 <defs>
  <clipPath id="p3c544b21f5">
   <rect x="7.2" y="10.999219" width="558" height="277.2"/>
  </clipPath>
 </defs>
</svg>
