<?xml version="1.0" encoding="utf-8" standalone="no"?>
<!DOCTYPE svg PUBLIC "-//W3C//DTD SVG 1.1//EN"
  "http://www.w3.org/Graphics/SVG/1.1/DTD/svg11.dtd">
<svg xmlns:xlink="http://www.w3.org/1999/xlink" width="628.071875pt" height="325.755469pt" viewBox="0 0 628.071875 325.755469" xmlns="http://www.w3.org/2000/svg" version="1.1">
 <metadata>
  <rdf:RDF xmlns:dc="http://purl.org/dc/elements/1.1/" xmlns:cc="http://creativecommons.org/ns#" xmlns:rdf="http://www.w3.org/1999/02/22-rdf-syntax-ns#">
   <cc:Work>
    <dc:type rdf:resource="http://purl.org/dc/dcmitype/StillImage"/>
    <dc:date>2024-06-13T16:21:36.225275</dc:date>
    <dc:format>image/svg+xml</dc:format>
    <dc:creator>
     <cc:Agent>
      <dc:title>Matplotlib v3.9.0, https://matplotlib.org/</dc:title>
     </cc:Agent>
    </dc:creator>
   </cc:Work>
  </rdf:RDF>
 </metadata>
 <defs>
  <style type="text/css">*{stroke-linejoin: round; stroke-linecap: butt}</style>
 </defs>
 <g id="figure_1">
  <g id="patch_1">
   <path d="M 0 325.755469 
L 628.071875 325.755469 
L 628.071875 0 
L 0 0 
z
" style="fill: #ffffff"/>
  </g>
  <g id="axes_1">
   <g id="patch_2">
    <path d="M 53.328125 288.199219 
L 611.328125 288.199219 
L 611.328125 10.999219 
L 53.328125 10.999219 
z
" style="fill: #ffffff"/>
   </g>
   <g id="matplotlib.axis_1">
    <g id="xtick_1">
     <g id="line2d_1">
      <defs>
       <path id="me30065c789" d="M 0 0 
L 0 3.5 
" style="stroke: #000000; stroke-width: 0.8"/>
      </defs>
      <g>
       <use xlink:href="#me30065c789" x="94.661458" y="288.199219" style="stroke: #000000; stroke-width: 0.8"/>
      </g>
     </g>
     <g id="text_1">
      <!-- 50 -->
      <g transform="translate(88.298958 302.797656) scale(0.1 -0.1)">
       <defs>
        <path id="DejaVuSans-35" d="M 691 4666 
L 3169 4666 
L 3169 4134 
L 1269 4134 
L 1269 2991 
Q 1406 3038 1543 3061 
Q 1681 3084 1819 3084 
Q 2600 3084 3056 2656 
Q 3513 2228 3513 1497 
Q 3513 744 3044 326 
Q 2575 -91 1722 -91 
Q 1428 -91 1123 -41 
Q 819 9 494 109 
L 494 744 
Q 775 591 1075 516 
Q 1375 441 1709 441 
Q 2250 441 2565 725 
Q 2881 1009 2881 1497 
Q 2881 1984 2565 2268 
Q 2250 2553 1709 2553 
Q 1456 2553 1204 2497 
Q 953 2441 691 2322 
L 691 4666 
z
" transform="scale(0.015625)"/>
        <path id="DejaVuSans-30" d="M 2034 4250 
Q 1547 4250 1301 3770 
Q 1056 3291 1056 2328 
Q 1056 1369 1301 889 
Q 1547 409 2034 409 
Q 2525 409 2770 889 
Q 3016 1369 3016 2328 
Q 3016 3291 2770 3770 
Q 2525 4250 2034 4250 
z
M 2034 4750 
Q 2819 4750 3233 4129 
Q 3647 3509 3647 2328 
Q 3647 1150 3233 529 
Q 2819 -91 2034 -91 
Q 1250 -91 836 529 
Q 422 1150 422 2328 
Q 422 3509 836 4129 
Q 1250 4750 2034 4750 
z
" transform="scale(0.015625)"/>
       </defs>
       <use xlink:href="#DejaVuSans-35"/>
       <use xlink:href="#DejaVuSans-30" x="63.623047"/>
      </g>
     </g>
    </g>
    <g id="xtick_2">
     <g id="line2d_2">
      <g>
       <use xlink:href="#me30065c789" x="197.994792" y="288.199219" style="stroke: #000000; stroke-width: 0.8"/>
      </g>
     </g>
     <g id="text_2">
      <!-- 100 -->
      <g transform="translate(188.451042 302.797656) scale(0.1 -0.1)">
       <defs>
        <path id="DejaVuSans-31" d="M 794 531 
L 1825 531 
L 1825 4091 
L 703 3866 
L 703 4441 
L 1819 4666 
L 2450 4666 
L 2450 531 
L 3481 531 
L 3481 0 
L 794 0 
L 794 531 
z
" transform="scale(0.015625)"/>
       </defs>
       <use xlink:href="#DejaVuSans-31"/>
       <use xlink:href="#DejaVuSans-30" x="63.623047"/>
       <use xlink:href="#DejaVuSans-30" x="127.246094"/>
      </g>
     </g>
    </g>
    <g id="xtick_3">
     <g id="line2d_3">
      <g>
       <use xlink:href="#me30065c789" x="301.328125" y="288.199219" style="stroke: #000000; stroke-width: 0.8"/>
      </g>
     </g>
     <g id="text_3">
      <!-- 150 -->
      <g transform="translate(291.784375 302.797656) scale(0.1 -0.1)">
       <use xlink:href="#DejaVuSans-31"/>
       <use xlink:href="#DejaVuSans-35" x="63.623047"/>
       <use xlink:href="#DejaVuSans-30" x="127.246094"/>
      </g>
     </g>
    </g>
    <g id="xtick_4">
     <g id="line2d_4">
      <g>
       <use xlink:href="#me30065c789" x="404.661458" y="288.199219" style="stroke: #000000; stroke-width: 0.8"/>
      </g>
     </g>
     <g id="text_4">
      <!-- 200 -->
      <g transform="translate(395.117708 302.797656) scale(0.1 -0.1)">
       <defs>
        <path id="DejaVuSans-32" d="M 1228 531 
L 3431 531 
L 3431 0 
L 469 0 
L 469 531 
Q 828 903 1448 1529 
Q 2069 2156 2228 2338 
Q 2531 2678 2651 2914 
Q 2772 3150 2772 3378 
Q 2772 3750 2511 3984 
Q 2250 4219 1831 4219 
Q 1534 4219 1204 4116 
Q 875 4013 500 3803 
L 500 4441 
Q 881 4594 1212 4672 
Q 1544 4750 1819 4750 
Q 2544 4750 2975 4387 
Q 3406 4025 3406 3419 
Q 3406 3131 3298 2873 
Q 3191 2616 2906 2266 
Q 2828 2175 2409 1742 
Q 1991 1309 1228 531 
z
" transform="scale(0.015625)"/>
       </defs>
       <use xlink:href="#DejaVuSans-32"/>
       <use xlink:href="#DejaVuSans-30" x="63.623047"/>
       <use xlink:href="#DejaVuSans-30" x="127.246094"/>
      </g>
     </g>
    </g>
    <g id="xtick_5">
     <g id="line2d_5">
      <g>
       <use xlink:href="#me30065c789" x="507.994792" y="288.199219" style="stroke: #000000; stroke-width: 0.8"/>
      </g>
     </g>
     <g id="text_5">
      <!-- 250 -->
      <g transform="translate(498.451042 302.797656) scale(0.1 -0.1)">
       <use xlink:href="#DejaVuSans-32"/>
       <use xlink:href="#DejaVuSans-35" x="63.623047"/>
       <use xlink:href="#DejaVuSans-30" x="127.246094"/>
      </g>
     </g>
    </g>
    <g id="xtick_6">
     <g id="line2d_6">
      <g>
       <use xlink:href="#me30065c789" x="611.328125" y="288.199219" style="stroke: #000000; stroke-width: 0.8"/>
      </g>
     </g>
     <g id="text_6">
      <!-- 300 -->
      <g transform="translate(601.784375 302.797656) scale(0.1 -0.1)">
       <defs>
        <path id="DejaVuSans-33" d="M 2597 2516 
Q 3050 2419 3304 2112 
Q 3559 1806 3559 1356 
Q 3559 666 3084 287 
Q 2609 -91 1734 -91 
Q 1441 -91 1130 -33 
Q 819 25 488 141 
L 488 750 
Q 750 597 1062 519 
Q 1375 441 1716 441 
Q 2309 441 2620 675 
Q 2931 909 2931 1356 
Q 2931 1769 2642 2001 
Q 2353 2234 1838 2234 
L 1294 2234 
L 1294 2753 
L 1863 2753 
Q 2328 2753 2575 2939 
Q 2822 3125 2822 3475 
Q 2822 3834 2567 4026 
Q 2313 4219 1838 4219 
Q 1578 4219 1281 4162 
Q 984 4106 628 3988 
L 628 4550 
Q 988 4650 1302 4700 
Q 1616 4750 1894 4750 
Q 2613 4750 3031 4423 
Q 3450 4097 3450 3541 
Q 3450 3153 3228 2886 
Q 3006 2619 2597 2516 
z
" transform="scale(0.015625)"/>
       </defs>
       <use xlink:href="#DejaVuSans-33"/>
       <use xlink:href="#DejaVuSans-30" x="63.623047"/>
       <use xlink:href="#DejaVuSans-30" x="127.246094"/>
      </g>
     </g>
    </g>
    <g id="text_7">
     <!-- Time [s] -->
     <g transform="translate(311.999219 316.475781) scale(0.1 -0.1)">
      <defs>
       <path id="DejaVuSans-54" d="M -19 4666 
L 3928 4666 
L 3928 4134 
L 2272 4134 
L 2272 0 
L 1638 0 
L 1638 4134 
L -19 4134 
L -19 4666 
z
" transform="scale(0.015625)"/>
       <path id="DejaVuSans-69" d="M 603 3500 
L 1178 3500 
L 1178 0 
L 603 0 
L 603 3500 
z
M 603 4863 
L 1178 4863 
L 1178 4134 
L 603 4134 
L 603 4863 
z
" transform="scale(0.015625)"/>
       <path id="DejaVuSans-6d" d="M 3328 2828 
Q 3544 3216 3844 3400 
Q 4144 3584 4550 3584 
Q 5097 3584 5394 3201 
Q 5691 2819 5691 2113 
L 5691 0 
L 5113 0 
L 5113 2094 
Q 5113 2597 4934 2840 
Q 4756 3084 4391 3084 
Q 3944 3084 3684 2787 
Q 3425 2491 3425 1978 
L 3425 0 
L 2847 0 
L 2847 2094 
Q 2847 2600 2669 2842 
Q 2491 3084 2119 3084 
Q 1678 3084 1418 2786 
Q 1159 2488 1159 1978 
L 1159 0 
L 581 0 
L 581 3500 
L 1159 3500 
L 1159 2956 
Q 1356 3278 1631 3431 
Q 1906 3584 2284 3584 
Q 2666 3584 2933 3390 
Q 3200 3197 3328 2828 
z
" transform="scale(0.015625)"/>
       <path id="DejaVuSans-65" d="M 3597 1894 
L 3597 1613 
L 953 1613 
Q 991 1019 1311 708 
Q 1631 397 2203 397 
Q 2534 397 2845 478 
Q 3156 559 3463 722 
L 3463 178 
Q 3153 47 2828 -22 
Q 2503 -91 2169 -91 
Q 1331 -91 842 396 
Q 353 884 353 1716 
Q 353 2575 817 3079 
Q 1281 3584 2069 3584 
Q 2775 3584 3186 3129 
Q 3597 2675 3597 1894 
z
M 3022 2063 
Q 3016 2534 2758 2815 
Q 2500 3097 2075 3097 
Q 1594 3097 1305 2825 
Q 1016 2553 972 2059 
L 3022 2063 
z
" transform="scale(0.015625)"/>
       <path id="DejaVuSans-20" transform="scale(0.015625)"/>
       <path id="DejaVuSans-5b" d="M 550 4863 
L 1875 4863 
L 1875 4416 
L 1125 4416 
L 1125 -397 
L 1875 -397 
L 1875 -844 
L 550 -844 
L 550 4863 
z
" transform="scale(0.015625)"/>
       <path id="DejaVuSans-73" d="M 2834 3397 
L 2834 2853 
Q 2591 2978 2328 3040 
Q 2066 3103 1784 3103 
Q 1356 3103 1142 2972 
Q 928 2841 928 2578 
Q 928 2378 1081 2264 
Q 1234 2150 1697 2047 
L 1894 2003 
Q 2506 1872 2764 1633 
Q 3022 1394 3022 966 
Q 3022 478 2636 193 
Q 2250 -91 1575 -91 
Q 1294 -91 989 -36 
Q 684 19 347 128 
L 347 722 
Q 666 556 975 473 
Q 1284 391 1588 391 
Q 1994 391 2212 530 
Q 2431 669 2431 922 
Q 2431 1156 2273 1281 
Q 2116 1406 1581 1522 
L 1381 1569 
Q 847 1681 609 1914 
Q 372 2147 372 2553 
Q 372 3047 722 3315 
Q 1072 3584 1716 3584 
Q 2034 3584 2315 3537 
Q 2597 3491 2834 3397 
z
" transform="scale(0.015625)"/>
       <path id="DejaVuSans-5d" d="M 1947 4863 
L 1947 -844 
L 622 -844 
L 622 -397 
L 1369 -397 
L 1369 4416 
L 622 4416 
L 622 4863 
L 1947 4863 
z
" transform="scale(0.015625)"/>
      </defs>
      <use xlink:href="#DejaVuSans-54"/>
      <use xlink:href="#DejaVuSans-69" x="57.958984"/>
      <use xlink:href="#DejaVuSans-6d" x="85.742188"/>
      <use xlink:href="#DejaVuSans-65" x="183.154297"/>
      <use xlink:href="#DejaVuSans-20" x="244.677734"/>
      <use xlink:href="#DejaVuSans-5b" x="276.464844"/>
      <use xlink:href="#DejaVuSans-73" x="315.478516"/>
      <use xlink:href="#DejaVuSans-5d" x="367.578125"/>
     </g>
    </g>
   </g>
   <g id="matplotlib.axis_2">
    <g id="ytick_1">
     <g id="line2d_7">
      <defs>
       <path id="me1445634cd" d="M 0 0 
L -3.5 0 
" style="stroke: #000000; stroke-width: 0.8"/>
      </defs>
      <g>
       <use xlink:href="#me1445634cd" x="53.328125" y="288.199219" style="stroke: #000000; stroke-width: 0.8"/>
      </g>
     </g>
     <g id="text_8">
      <!-- 0 -->
      <g transform="translate(39.965625 291.998438) scale(0.1 -0.1)">
       <use xlink:href="#DejaVuSans-30"/>
      </g>
     </g>
    </g>
    <g id="ytick_2">
     <g id="line2d_8">
      <g>
       <use xlink:href="#me1445634cd" x="53.328125" y="232.759219" style="stroke: #000000; stroke-width: 0.8"/>
      </g>
     </g>
     <g id="text_9">
      <!-- 500 -->
      <g transform="translate(27.240625 236.558438) scale(0.1 -0.1)">
       <use xlink:href="#DejaVuSans-35"/>
       <use xlink:href="#DejaVuSans-30" x="63.623047"/>
       <use xlink:href="#DejaVuSans-30" x="127.246094"/>
      </g>
     </g>
    </g>
    <g id="ytick_3">
     <g id="line2d_9">
      <g>
       <use xlink:href="#me1445634cd" x="53.328125" y="177.319219" style="stroke: #000000; stroke-width: 0.8"/>
      </g>
     </g>
     <g id="text_10">
      <!-- 1000 -->
      <g transform="translate(20.878125 181.118437) scale(0.1 -0.1)">
       <use xlink:href="#DejaVuSans-31"/>
       <use xlink:href="#DejaVuSans-30" x="63.623047"/>
       <use xlink:href="#DejaVuSans-30" x="127.246094"/>
       <use xlink:href="#DejaVuSans-30" x="190.869141"/>
      </g>
     </g>
    </g>
    <g id="ytick_4">
     <g id="line2d_10">
      <g>
       <use xlink:href="#me1445634cd" x="53.328125" y="121.879219" style="stroke: #000000; stroke-width: 0.8"/>
      </g>
     </g>
     <g id="text_11">
      <!-- 1500 -->
      <g transform="translate(20.878125 125.678438) scale(0.1 -0.1)">
       <use xlink:href="#DejaVuSans-31"/>
       <use xlink:href="#DejaVuSans-35" x="63.623047"/>
       <use xlink:href="#DejaVuSans-30" x="127.246094"/>
       <use xlink:href="#DejaVuSans-30" x="190.869141"/>
      </g>
     </g>
    </g>
    <g id="ytick_5">
     <g id="line2d_11">
      <g>
       <use xlink:href="#me1445634cd" x="53.328125" y="66.439219" style="stroke: #000000; stroke-width: 0.8"/>
      </g>
     </g>
     <g id="text_12">
      <!-- 2000 -->
      <g transform="translate(20.878125 70.238437) scale(0.1 -0.1)">
       <use xlink:href="#DejaVuSans-32"/>
       <use xlink:href="#DejaVuSans-30" x="63.623047"/>
       <use xlink:href="#DejaVuSans-30" x="127.246094"/>
       <use xlink:href="#DejaVuSans-30" x="190.869141"/>
      </g>
     </g>
    </g>
    <g id="ytick_6">
     <g id="line2d_12">
      <g>
       <use xlink:href="#me1445634cd" x="53.328125" y="10.999219" style="stroke: #000000; stroke-width: 0.8"/>
      </g>
     </g>
     <g id="text_13">
      <!-- 2500 -->
      <g transform="translate(20.878125 14.798438) scale(0.1 -0.1)">
       <use xlink:href="#DejaVuSans-32"/>
       <use xlink:href="#DejaVuSans-35" x="63.623047"/>
       <use xlink:href="#DejaVuSans-30" x="127.246094"/>
       <use xlink:href="#DejaVuSans-30" x="190.869141"/>
      </g>
     </g>
    </g>
    <g id="text_14">
     <!-- Spike Count -->
     <g transform="translate(14.798438 179.564844) rotate(-90) scale(0.1 -0.1)">
      <defs>
       <path id="DejaVuSans-53" d="M 3425 4513 
L 3425 3897 
Q 3066 4069 2747 4153 
Q 2428 4238 2131 4238 
Q 1616 4238 1336 4038 
Q 1056 3838 1056 3469 
Q 1056 3159 1242 3001 
Q 1428 2844 1947 2747 
L 2328 2669 
Q 3034 2534 3370 2195 
Q 3706 1856 3706 1288 
Q 3706 609 3251 259 
Q 2797 -91 1919 -91 
Q 1588 -91 1214 -16 
Q 841 59 441 206 
L 441 856 
Q 825 641 1194 531 
Q 1563 422 1919 422 
Q 2459 422 2753 634 
Q 3047 847 3047 1241 
Q 3047 1584 2836 1778 
Q 2625 1972 2144 2069 
L 1759 2144 
Q 1053 2284 737 2584 
Q 422 2884 422 3419 
Q 422 4038 858 4394 
Q 1294 4750 2059 4750 
Q 2388 4750 2728 4690 
Q 3069 4631 3425 4513 
z
" transform="scale(0.015625)"/>
       <path id="DejaVuSans-70" d="M 1159 525 
L 1159 -1331 
L 581 -1331 
L 581 3500 
L 1159 3500 
L 1159 2969 
Q 1341 3281 1617 3432 
Q 1894 3584 2278 3584 
Q 2916 3584 3314 3078 
Q 3713 2572 3713 1747 
Q 3713 922 3314 415 
Q 2916 -91 2278 -91 
Q 1894 -91 1617 61 
Q 1341 213 1159 525 
z
M 3116 1747 
Q 3116 2381 2855 2742 
Q 2594 3103 2138 3103 
Q 1681 3103 1420 2742 
Q 1159 2381 1159 1747 
Q 1159 1113 1420 752 
Q 1681 391 2138 391 
Q 2594 391 2855 752 
Q 3116 1113 3116 1747 
z
" transform="scale(0.015625)"/>
       <path id="DejaVuSans-6b" d="M 581 4863 
L 1159 4863 
L 1159 1991 
L 2875 3500 
L 3609 3500 
L 1753 1863 
L 3688 0 
L 2938 0 
L 1159 1709 
L 1159 0 
L 581 0 
L 581 4863 
z
" transform="scale(0.015625)"/>
       <path id="DejaVuSans-43" d="M 4122 4306 
L 4122 3641 
Q 3803 3938 3442 4084 
Q 3081 4231 2675 4231 
Q 1875 4231 1450 3742 
Q 1025 3253 1025 2328 
Q 1025 1406 1450 917 
Q 1875 428 2675 428 
Q 3081 428 3442 575 
Q 3803 722 4122 1019 
L 4122 359 
Q 3791 134 3420 21 
Q 3050 -91 2638 -91 
Q 1578 -91 968 557 
Q 359 1206 359 2328 
Q 359 3453 968 4101 
Q 1578 4750 2638 4750 
Q 3056 4750 3426 4639 
Q 3797 4528 4122 4306 
z
" transform="scale(0.015625)"/>
       <path id="DejaVuSans-6f" d="M 1959 3097 
Q 1497 3097 1228 2736 
Q 959 2375 959 1747 
Q 959 1119 1226 758 
Q 1494 397 1959 397 
Q 2419 397 2687 759 
Q 2956 1122 2956 1747 
Q 2956 2369 2687 2733 
Q 2419 3097 1959 3097 
z
M 1959 3584 
Q 2709 3584 3137 3096 
Q 3566 2609 3566 1747 
Q 3566 888 3137 398 
Q 2709 -91 1959 -91 
Q 1206 -91 779 398 
Q 353 888 353 1747 
Q 353 2609 779 3096 
Q 1206 3584 1959 3584 
z
" transform="scale(0.015625)"/>
       <path id="DejaVuSans-75" d="M 544 1381 
L 544 3500 
L 1119 3500 
L 1119 1403 
Q 1119 906 1312 657 
Q 1506 409 1894 409 
Q 2359 409 2629 706 
Q 2900 1003 2900 1516 
L 2900 3500 
L 3475 3500 
L 3475 0 
L 2900 0 
L 2900 538 
Q 2691 219 2414 64 
Q 2138 -91 1772 -91 
Q 1169 -91 856 284 
Q 544 659 544 1381 
z
M 1991 3584 
L 1991 3584 
z
" transform="scale(0.015625)"/>
       <path id="DejaVuSans-6e" d="M 3513 2113 
L 3513 0 
L 2938 0 
L 2938 2094 
Q 2938 2591 2744 2837 
Q 2550 3084 2163 3084 
Q 1697 3084 1428 2787 
Q 1159 2491 1159 1978 
L 1159 0 
L 581 0 
L 581 3500 
L 1159 3500 
L 1159 2956 
Q 1366 3272 1645 3428 
Q 1925 3584 2291 3584 
Q 2894 3584 3203 3211 
Q 3513 2838 3513 2113 
z
" transform="scale(0.015625)"/>
       <path id="DejaVuSans-74" d="M 1172 4494 
L 1172 3500 
L 2356 3500 
L 2356 3053 
L 1172 3053 
L 1172 1153 
Q 1172 725 1289 603 
Q 1406 481 1766 481 
L 2356 481 
L 2356 0 
L 1766 0 
Q 1100 0 847 248 
Q 594 497 594 1153 
L 594 3053 
L 172 3053 
L 172 3500 
L 594 3500 
L 594 4494 
L 1172 4494 
z
" transform="scale(0.015625)"/>
      </defs>
      <use xlink:href="#DejaVuSans-53"/>
      <use xlink:href="#DejaVuSans-70" x="63.476562"/>
      <use xlink:href="#DejaVuSans-69" x="126.953125"/>
      <use xlink:href="#DejaVuSans-6b" x="154.736328"/>
      <use xlink:href="#DejaVuSans-65" x="209.021484"/>
      <use xlink:href="#DejaVuSans-20" x="270.544922"/>
      <use xlink:href="#DejaVuSans-43" x="302.332031"/>
      <use xlink:href="#DejaVuSans-6f" x="372.15625"/>
      <use xlink:href="#DejaVuSans-75" x="433.337891"/>
      <use xlink:href="#DejaVuSans-6e" x="496.716797"/>
      <use xlink:href="#DejaVuSans-74" x="560.095703"/>
     </g>
    </g>
   </g>
   <g id="line2d_13">
    <path d="M 53.121458 266.297093 
L 53.534792 262.584717 
L 53.741458 263.63697 
L 54.154792 269.553844 
L 54.568125 271.908813 
L 54.774792 272.403939 
L 54.981458 272.089503 
L 55.394792 269.743459 
L 55.808125 266.7022 
L 56.014792 267.058437 
L 56.428125 270.836952 
L 56.634792 270.662198 
L 56.841458 267.619575 
L 57.048125 260.92022 
L 57.254792 249.632288 
L 57.461458 230.692218 
L 58.494792 88.596189 
L 58.701458 99.416046 
L 59.528125 259.35688 
L 59.734792 270.809878 
L 59.941458 274.514499 
L 60.148125 274.364897 
L 60.354792 273.261953 
L 60.561458 272.987843 
L 61.181458 275.536385 
L 61.388125 275.721463 
L 61.594792 275.558974 
L 61.801458 275.108719 
L 62.008125 273.960217 
L 62.628125 267.753384 
L 63.248125 260.01527 
L 63.454792 260.959292 
L 63.868125 267.666072 
L 64.074792 267.818215 
L 65.108125 249.852477 
L 65.314792 245.841964 
L 65.521458 238.711793 
L 66.141458 198.707622 
L 66.348125 198.577918 
L 66.554792 204.922996 
L 67.174792 242.006622 
L 67.381458 240.118046 
L 67.588125 234.004214 
L 67.794792 235.238046 
L 68.414792 266.014754 
L 68.621458 268.532039 
L 68.828125 267.200388 
L 69.448125 255.492974 
L 69.654792 257.744897 
L 70.274792 270.774499 
L 70.481458 271.332887 
L 70.894792 268.601082 
L 71.308125 266.157178 
L 71.721458 267.300557 
L 71.928125 265.42561 
L 72.754792 245.155624 
L 72.961458 246.46178 
L 73.168125 250.148266 
L 73.788125 266.140741 
L 74.201458 270.465704 
L 74.408125 271.967471 
L 74.614792 272.499427 
L 74.821458 271.974206 
L 75.441458 268.743116 
L 75.854792 268.310005 
L 76.061458 266.934222 
L 77.301458 250.299841 
L 77.508125 250.243108 
L 77.714792 254.188844 
L 78.128125 265.394344 
L 78.334792 265.534219 
L 78.541458 263.6802 
L 78.748125 263.350545 
L 79.368125 269.403095 
L 79.574792 269.670834 
L 79.781458 269.22958 
L 80.608125 266.101728 
L 81.021458 264.751725 
L 81.228125 264.795329 
L 81.434792 264.093471 
L 81.848125 257.358998 
L 83.088125 228.900921 
L 83.294792 229.721987 
L 83.708125 246.709872 
L 84.121458 260.355684 
L 84.534792 264.70543 
L 84.741458 264.585904 
L 85.154792 260.436139 
L 85.361458 260.005251 
L 85.774792 261.61319 
L 85.981458 261.255494 
L 86.394792 258.967857 
L 86.601458 258.895687 
L 86.808125 259.104729 
L 87.014792 257.592791 
L 87.428125 252.402789 
L 87.634792 251.840338 
L 87.841458 251.735435 
L 88.048125 252.232927 
L 88.461458 254.848407 
L 88.874792 250.634387 
L 89.081458 251.252356 
L 89.701458 260.552133 
L 90.114792 262.10602 
L 90.528125 266.205856 
L 90.734792 266.607303 
L 90.941458 266.011185 
L 91.148125 266.230166 
L 91.354792 267.187101 
L 91.561458 267.108912 
L 92.388125 261.30675 
L 92.594792 260.479348 
L 92.801458 260.271672 
L 93.008125 260.53709 
L 93.214792 261.577037 
L 93.628125 265.330239 
L 94.041458 266.403256 
L 94.454792 268.944347 
L 94.868125 268.347852 
L 95.074792 268.534059 
L 95.281458 268.262677 
L 95.901458 264.218145 
L 96.108125 262.75298 
L 96.728125 254.413276 
L 96.934792 254.817935 
L 97.348125 259.92806 
L 97.554792 260.217525 
L 98.174792 256.329518 
L 98.588125 253.900497 
L 99.001458 252.314795 
L 99.208125 253.021458 
L 99.621458 258.946991 
L 100.034792 260.933134 
L 100.448125 264.23387 
L 100.654792 263.874076 
L 100.861458 262.751165 
L 101.068125 262.760231 
L 101.688125 268.277111 
L 101.894792 268.817749 
L 102.308125 268.99679 
L 102.721458 269.065328 
L 102.928125 269.488365 
L 103.134792 270.218432 
L 103.341458 270.029078 
L 103.548125 267.505086 
L 104.168125 252.782897 
L 104.374792 251.678341 
L 104.581458 252.022155 
L 104.788125 252.782096 
L 105.201458 257.075915 
L 105.614792 260.814484 
L 105.821458 260.926028 
L 106.028125 260.000586 
L 106.234792 257.66636 
L 106.441458 251.787841 
L 107.061458 224.844383 
L 107.268125 232.605347 
L 107.681458 255.406031 
L 107.888125 258.847397 
L 108.094792 259.605108 
L 108.301458 261.096751 
L 108.921458 268.360257 
L 109.128125 266.914879 
L 109.541458 259.951895 
L 109.748125 260.35841 
L 109.954792 262.995507 
L 110.161458 264.016282 
L 110.574792 261.617697 
L 110.781458 262.926767 
L 111.194792 268.2935 
L 111.401458 266.740215 
L 111.814792 258.256606 
L 112.021458 258.290461 
L 112.434792 260.995595 
L 112.641458 261.704298 
L 113.054792 266.086536 
L 113.261458 265.755109 
L 113.468125 261.186335 
L 114.501458 216.28196 
L 114.914792 191.343708 
L 115.121458 188.201344 
L 115.328125 200.989225 
L 115.741458 239.194515 
L 115.948125 243.687691 
L 116.154792 244.515745 
L 116.361458 247.655052 
L 116.981458 262.862581 
L 117.188125 264.288716 
L 117.394792 264.326077 
L 117.601458 264.627563 
L 118.014792 267.592398 
L 118.428125 270.07884 
L 118.634792 269.422313 
L 119.668125 259.841733 
L 119.874792 257.206948 
L 120.081458 256.119475 
L 120.288125 258.481099 
L 120.701458 267.092955 
L 120.908125 268.464473 
L 121.321458 268.005092 
L 121.528125 267.32645 
L 122.148125 261.904799 
L 122.974792 265.314336 
L 123.181458 264.322337 
L 123.594792 261.278056 
L 123.801458 261.117846 
L 124.008125 260.743141 
L 124.214792 260.123129 
L 124.421458 259.082914 
L 124.834792 252.553497 
L 125.041458 249.197131 
L 125.248125 247.72135 
L 125.454792 248.136284 
L 125.661458 250.21301 
L 126.074792 256.864557 
L 126.281458 257.527062 
L 126.488125 256.515383 
L 126.694792 257.150733 
L 127.108125 262.002634 
L 127.314792 261.510334 
L 127.521458 260.55309 
L 127.728125 262.10237 
L 127.934792 265.521832 
L 128.141458 267.009195 
L 128.348125 263.260872 
L 128.761458 247.900178 
L 128.968125 248.67105 
L 129.588125 266.792891 
L 129.794792 269.276524 
L 130.001458 270.413676 
L 130.208125 269.389864 
L 131.241458 255.845039 
L 131.448125 254.716473 
L 131.654792 254.717009 
L 132.274792 258.882396 
L 132.688125 258.034526 
L 132.894792 258.123603 
L 133.101458 258.727822 
L 133.721458 261.345914 
L 133.928125 257.976004 
L 134.134792 252.629953 
L 134.341458 250.420718 
L 134.961458 259.410984 
L 135.168125 258.396158 
L 135.374792 258.634119 
L 135.994792 263.530099 
L 136.408125 264.75765 
L 137.234792 266.534581 
L 137.648125 266.552429 
L 137.854792 266.965664 
L 138.268125 268.280444 
L 138.474792 268.645998 
L 138.681458 268.028723 
L 139.301458 260.605147 
L 139.714792 260.047555 
L 140.128125 258.548634 
L 140.334792 257.068441 
L 140.541458 253.963187 
L 140.954792 242.603761 
L 141.368125 231.129779 
L 141.574792 229.050285 
L 141.781458 223.358692 
L 142.194792 198.470959 
L 142.401458 200.219257 
L 143.228125 259.532948 
L 143.848125 265.402137 
L 144.054792 266.665526 
L 144.261458 266.798901 
L 144.468125 265.66732 
L 144.881458 262.718724 
L 145.088125 262.108823 
L 145.294792 260.539216 
L 145.708125 255.591869 
L 145.914792 257.025417 
L 146.534792 267.92956 
L 146.741458 268.241034 
L 146.948125 266.352339 
L 147.361458 259.645832 
L 147.568125 258.193369 
L 147.774792 258.224613 
L 147.981458 258.727273 
L 148.188125 258.859189 
L 148.394792 258.03474 
L 148.808125 255.879342 
L 149.014792 256.506898 
L 149.221458 257.999593 
L 149.428125 260.467201 
L 149.841458 267.993463 
L 150.048125 269.711813 
L 150.254792 269.390057 
L 150.461458 268.166329 
L 150.668125 266.18906 
L 150.874792 262.428216 
L 151.701458 239.322295 
L 151.908125 239.270214 
L 152.114792 241.353012 
L 152.528125 252.07634 
L 152.941458 262.14518 
L 153.148125 261.889647 
L 153.561458 254.42511 
L 153.974792 246.803461 
L 154.181458 236.745874 
L 154.594792 211.840989 
L 154.801458 218.304525 
L 155.008125 228.292808 
L 155.214792 227.93267 
L 155.421458 221.515651 
L 155.628125 220.923124 
L 156.041458 240.850866 
L 156.454792 256.584785 
L 156.661458 253.970104 
L 157.074792 230.861657 
L 157.281458 228.352511 
L 158.314792 267.03897 
L 158.728125 272.441315 
L 159.141458 274.415803 
L 159.348125 274.647078 
L 159.554792 273.871755 
L 159.968125 270.2205 
L 160.381458 264.750179 
L 160.588125 263.827535 
L 160.794792 263.474079 
L 161.414792 258.498086 
L 161.621458 258.512048 
L 161.828125 258.168121 
L 162.034792 257.462024 
L 162.241458 257.269792 
L 162.448125 258.085069 
L 162.861458 263.758206 
L 163.068125 266.547223 
L 163.274792 267.224206 
L 163.688125 265.584093 
L 163.894792 264.342132 
L 164.308125 258.054561 
L 164.514792 255.083258 
L 164.721458 255.074005 
L 165.134792 259.981358 
L 165.341458 260.287391 
L 165.961458 257.015237 
L 166.581458 261.767587 
L 166.788125 258.21672 
L 166.994792 246.436418 
L 167.614792 183.491119 
L 167.821458 197.012809 
L 168.234792 244.966683 
L 168.648125 265.205792 
L 168.854792 269.561451 
L 169.061458 271.482812 
L 169.268125 271.815918 
L 169.474792 271.622864 
L 169.681458 271.986999 
L 170.094792 274.097052 
L 170.301458 274.272016 
L 170.508125 273.523228 
L 171.541458 267.43493 
L 171.748125 266.734123 
L 171.954792 266.726792 
L 172.161458 266.858762 
L 172.574792 267.937994 
L 172.781458 267.75838 
L 172.988125 265.600335 
L 173.401458 259.190666 
L 173.608125 258.342655 
L 173.814792 256.578885 
L 174.228125 249.382508 
L 174.434792 249.998724 
L 174.641458 251.197565 
L 175.054792 250.023858 
L 175.261458 251.317546 
L 176.294792 266.929953 
L 176.501458 265.286976 
L 176.708125 261.69542 
L 176.914792 260.069451 
L 177.534792 264.910955 
L 177.741458 262.89835 
L 178.568125 248.802171 
L 178.774792 247.47566 
L 178.981458 248.010097 
L 179.188125 249.582673 
L 179.394792 246.967609 
L 179.601458 232.351483 
L 180.014792 176.084438 
L 180.221458 174.475476 
L 180.841458 256.416683 
L 181.048125 263.731051 
L 181.461458 268.003503 
L 182.081458 272.294874 
L 182.288125 273.929127 
L 182.494792 274.462957 
L 182.701458 273.77937 
L 183.528125 268.060458 
L 184.354792 256.257671 
L 184.974792 221.169397 
L 185.181458 229.375147 
L 185.594792 249.060864 
L 185.801458 246.333161 
L 186.008125 231.350234 
L 186.421458 148.709316 
L 186.628125 103.775931 
L 186.834792 92.008833 
L 187.041458 121.20311 
L 187.454792 210.341857 
L 187.868125 251.009552 
L 188.281458 269.263404 
L 188.488125 273.89079 
L 188.694792 275.552682 
L 188.901458 275.639802 
L 189.314792 274.436789 
L 189.934792 271.720338 
L 190.141458 272.185345 
L 190.554792 274.530117 
L 190.761458 274.72921 
L 190.968125 274.067886 
L 191.588125 269.626307 
L 191.794792 269.661389 
L 192.001458 270.231912 
L 192.208125 270.39701 
L 192.414792 270.100938 
L 192.621458 269.581678 
L 192.828125 268.577772 
L 193.241458 265.799353 
L 193.448125 265.765251 
L 193.861458 267.027072 
L 194.068125 266.163955 
L 194.688125 257.130123 
L 195.308125 269.37849 
L 195.514792 267.773988 
L 196.341458 254.296714 
L 196.548125 255.964346 
L 196.961458 262.791197 
L 197.168125 262.481815 
L 197.788125 256.960634 
L 198.408125 249.032997 
L 198.821458 247.995633 
L 199.441458 239.820841 
L 199.648125 242.895418 
L 200.268125 261.37027 
L 200.474792 264.828012 
L 200.681458 265.923996 
L 200.888125 264.379429 
L 201.301458 257.474199 
L 201.508125 256.306462 
L 201.921458 257.265572 
L 202.128125 257.134195 
L 202.334792 256.473361 
L 202.954792 251.486858 
L 203.161458 254.620077 
L 203.574792 264.645856 
L 203.781458 266.719399 
L 203.988125 267.01707 
L 204.608125 268.642752 
L 204.814792 268.640797 
L 205.021458 268.350417 
L 205.228125 266.160847 
L 205.641458 259.467174 
L 205.848125 260.21776 
L 206.261458 265.178649 
L 206.674792 266.683701 
L 206.881458 267.012441 
L 207.088125 266.911863 
L 207.501458 267.232706 
L 207.708125 265.384071 
L 208.121458 252.109765 
L 208.328125 245.403041 
L 208.534792 243.457608 
L 208.948125 247.433397 
L 209.154792 244.401148 
L 209.774792 218.826156 
L 209.981458 220.938417 
L 210.601458 245.379993 
L 211.221458 259.904404 
L 211.428125 264.388179 
L 211.634792 266.013716 
L 211.841458 266.093321 
L 212.048125 266.991831 
L 212.254792 268.55939 
L 212.461458 268.998444 
L 213.081458 266.574771 
L 213.908125 267.148188 
L 214.321458 266.118344 
L 214.734792 268.201324 
L 214.941458 268.161958 
L 215.148125 266.62375 
L 215.768125 259.288811 
L 215.974792 259.14396 
L 216.388125 261.787058 
L 216.594792 261.276753 
L 216.801458 259.616349 
L 217.008125 259.23954 
L 217.214792 260.332219 
L 217.421458 260.442929 
L 217.628125 259.637371 
L 217.834792 260.984674 
L 218.248125 267.304897 
L 218.454792 268.35511 
L 218.661458 267.634001 
L 218.868125 262.121305 
L 219.074792 244.713764 
L 219.901458 102.357226 
L 220.108125 115.830753 
L 220.934792 262.965224 
L 221.141458 270.250025 
L 221.348125 271.594187 
L 221.554792 269.723773 
L 221.761458 263.359984 
L 222.174792 239.964152 
L 222.381458 236.925609 
L 222.794792 248.089234 
L 223.001458 249.996901 
L 223.208125 249.68512 
L 223.414792 250.423633 
L 223.621458 253.884604 
L 224.034792 264.324674 
L 224.241458 266.286667 
L 224.654792 264.718525 
L 224.861458 266.059269 
L 225.481458 274.17322 
L 225.688125 274.666843 
L 225.894792 273.377114 
L 226.101458 270.080328 
L 226.514792 256.454907 
L 226.721458 248.836991 
L 226.928125 246.034049 
L 227.134792 249.637756 
L 227.548125 259.288612 
L 227.754792 258.515191 
L 228.168125 252.834638 
L 228.374792 253.345666 
L 229.201458 268.677602 
L 229.408125 268.537108 
L 229.614792 268.857878 
L 229.821458 269.560741 
L 230.028125 269.864285 
L 230.234792 269.543158 
L 230.441458 267.973804 
L 230.648125 263.746922 
L 231.061458 251.313494 
L 231.268125 250.533244 
L 231.888125 263.42741 
L 232.094792 253.895397 
L 232.714792 174.932994 
L 232.921458 174.176112 
L 233.334792 210.249139 
L 233.954792 263.824836 
L 234.161458 269.986122 
L 234.574792 274.248902 
L 234.781458 275.026464 
L 234.988125 275.004206 
L 235.194792 273.755947 
L 236.021458 263.425735 
L 236.434792 265.147951 
L 236.641458 262.823443 
L 237.261458 243.564293 
L 237.468125 244.021844 
L 237.881458 254.899833 
L 238.294792 266.629947 
L 238.501458 269.454944 
L 238.708125 270.335114 
L 238.914792 270.525622 
L 239.121458 270.494275 
L 239.328125 269.938035 
L 239.741458 267.26491 
L 239.948125 267.470338 
L 240.361458 270.346449 
L 240.568125 270.496248 
L 240.774792 269.486488 
L 241.394792 264.226805 
L 241.601458 265.303108 
L 242.014792 267.968564 
L 242.221458 267.132094 
L 242.634792 264.041025 
L 242.841458 263.753355 
L 243.048125 263.247018 
L 243.254792 260.13045 
L 243.461458 249.524169 
L 243.874792 193.16495 
L 244.081458 165.971933 
L 244.288125 154.601704 
L 244.494792 155.139629 
L 244.701458 165.551464 
L 245.528125 257.107754 
L 245.941458 268.563603 
L 246.148125 270.612363 
L 246.354792 270.529942 
L 246.561458 267.440674 
L 247.388125 243.501653 
L 247.801458 248.506986 
L 248.008125 245.514509 
L 248.421458 233.817442 
L 248.628125 239.75236 
L 249.041458 260.410298 
L 249.454792 266.423465 
L 250.074792 271.527928 
L 250.281458 271.259428 
L 250.694792 269.289857 
L 250.901458 267.385324 
L 251.314792 261.027993 
L 251.521458 260.196341 
L 252.141458 263.903771 
L 252.348125 263.370131 
L 252.554792 261.200659 
L 252.761458 256.799336 
L 252.968125 247.488945 
L 253.588125 202.295948 
L 253.794792 204.498623 
L 254.414792 223.338571 
L 255.034792 261.375753 
L 255.448125 270.037149 
L 255.654792 271.631835 
L 255.861458 271.925164 
L 256.481458 267.364958 
L 256.688125 267.79858 
L 257.514792 272.48532 
L 257.721458 272.951359 
L 257.928125 272.223369 
L 259.168125 262.656766 
L 259.374792 263.380788 
L 260.201458 272.511552 
L 260.408125 272.724951 
L 260.614792 270.896682 
L 261.441458 257.435899 
L 261.648125 258.168764 
L 262.268125 264.296035 
L 262.681458 265.867818 
L 262.888125 265.666036 
L 263.714792 260.492074 
L 264.128125 254.221299 
L 264.334792 253.415931 
L 264.748125 258.203015 
L 264.954792 252.406694 
L 265.368125 207.137644 
L 265.781458 164.675855 
L 265.988125 159.48965 
L 266.194792 165.651056 
L 266.401458 175.161423 
L 266.608125 174.775726 
L 266.814792 165.905133 
L 267.021458 167.989205 
L 267.848125 256.461868 
L 268.261458 268.717629 
L 268.674792 274.752117 
L 268.881458 275.525683 
L 269.088125 275.420153 
L 269.294792 274.325175 
L 269.708125 270.838168 
L 270.328125 267.712411 
L 270.534792 267.903997 
L 270.948125 270.296245 
L 271.154792 269.510778 
L 271.774792 262.069843 
L 272.188125 261.970311 
L 272.394792 262.348396 
L 272.808125 266.683533 
L 273.221458 269.925076 
L 273.634792 271.441895 
L 273.841458 270.895551 
L 274.461458 266.934588 
L 274.668125 266.771939 
L 274.874792 266.761529 
L 275.081458 265.464737 
L 275.494792 260.221956 
L 275.701458 260.593655 
L 276.528125 271.726602 
L 276.734792 272.408792 
L 276.941458 272.602727 
L 277.148125 272.090114 
L 277.354792 270.329709 
L 277.768125 262.836637 
L 278.181458 250.358097 
L 278.594792 236.575097 
L 279.008125 229.035575 
L 279.421458 208.863195 
L 279.628125 206.097095 
L 280.248125 227.789844 
L 280.454792 227.480824 
L 280.661458 217.164641 
L 281.488125 115.836557 
L 281.694792 120.857308 
L 282.108125 189.947983 
L 282.521458 255.128449 
L 282.728125 266.778932 
L 283.141458 274.700872 
L 283.348125 276.210936 
L 283.554792 276.135997 
L 284.174792 273.013098 
L 284.381458 272.539048 
L 284.588125 272.575822 
L 284.794792 272.978058 
L 285.001458 273.128006 
L 285.208125 272.622608 
L 285.621458 271.112402 
L 285.828125 270.809095 
L 286.034792 270.923577 
L 286.654792 272.456076 
L 286.861458 271.14495 
L 287.068125 267.050072 
L 287.481458 255.92935 
L 287.688125 256.126079 
L 288.308125 266.033104 
L 288.514792 266.028547 
L 289.341458 258.128454 
L 289.754792 260.528205 
L 289.961458 260.516997 
L 290.168125 260.837153 
L 290.994792 265.886321 
L 291.614792 267.740704 
L 292.028125 265.226528 
L 292.234792 262.437629 
L 292.441458 253.666887 
L 293.061458 195.649954 
L 293.268125 195.317779 
L 293.474792 206.954051 
L 294.094792 262.890202 
L 294.301458 270.932222 
L 294.508125 273.306552 
L 294.714792 273.2502 
L 295.128125 272.762804 
L 295.334792 271.463856 
L 295.954792 261.842532 
L 296.161458 262.82724 
L 296.781458 270.021183 
L 296.988125 270.177001 
L 297.194792 268.92579 
L 297.608125 264.209586 
L 297.814792 264.459586 
L 298.228125 269.28045 
L 298.434792 269.008864 
L 298.848125 266.39988 
L 299.054792 266.814812 
L 299.468125 268.491665 
L 300.088125 272.840944 
L 300.294792 272.196935 
L 300.708125 270.203861 
L 300.914792 269.704217 
L 301.121458 268.488977 
L 301.741458 261.95594 
L 302.154792 256.42811 
L 302.361458 255.486796 
L 302.774792 257.301659 
L 302.981458 256.892326 
L 303.601458 250.818636 
L 304.014792 255.135547 
L 304.221458 254.791194 
L 304.841458 246.693738 
L 305.048125 248.953626 
L 305.668125 265.0738 
L 305.874792 265.854903 
L 306.081458 265.00486 
L 306.701458 260.497452 
L 306.908125 259.782837 
L 307.114792 259.648795 
L 307.321458 260.824851 
L 307.734792 265.387161 
L 307.941458 266.111075 
L 308.148125 266.13189 
L 308.561458 266.718958 
L 308.768125 264.913719 
L 308.974792 261.78111 
L 309.181458 260.831963 
L 309.801458 267.457597 
L 310.008125 265.47 
L 310.628125 253.60531 
L 310.834792 254.841969 
L 311.248125 259.275872 
L 311.454792 258.733922 
L 311.661458 257.787309 
L 311.868125 258.556426 
L 312.694792 269.963114 
L 312.901458 268.746166 
L 313.108125 266.534839 
L 313.314792 265.816848 
L 313.934792 270.981135 
L 314.141458 269.988501 
L 315.174792 258.101947 
L 315.588125 250.19969 
L 316.001458 238.451425 
L 316.208125 236.274378 
L 316.414792 231.620803 
L 317.034792 189.655808 
L 317.241458 199.779887 
L 317.861458 258.716086 
L 318.068125 266.029006 
L 318.274792 268.497951 
L 318.481458 268.071829 
L 319.101458 262.158573 
L 319.308125 262.946935 
L 319.721458 266.592037 
L 320.341458 273.313957 
L 320.548125 273.529298 
L 321.168125 267.150713 
L 321.374792 267.219846 
L 321.581458 267.956177 
L 321.788125 268.19328 
L 321.994792 267.710336 
L 322.201458 266.364445 
L 322.614792 262.346497 
L 322.821458 263.247345 
L 323.234792 269.615953 
L 323.441458 270.174153 
L 323.854792 266.029166 
L 324.474792 255.805711 
L 324.681458 255.867619 
L 325.094792 262.147885 
L 325.508125 267.783244 
L 325.714792 266.723185 
L 325.921458 260.952748 
L 326.128125 248.918098 
L 326.748125 199.509671 
L 326.954792 204.389149 
L 327.161458 214.782944 
L 327.368125 219.305198 
L 327.781458 207.855683 
L 327.988125 209.051664 
L 329.021458 263.336305 
L 329.228125 265.97285 
L 329.434792 267.169171 
L 329.641458 266.33532 
L 330.261458 256.035191 
L 330.468125 257.080589 
L 330.674792 258.859234 
L 330.881458 257.626326 
L 331.088125 252.631343 
L 331.294792 244.290519 
L 331.914792 204.358563 
L 332.121458 215.453544 
L 332.534792 254.902245 
L 332.741458 262.246998 
L 332.948125 264.390149 
L 333.154792 265.357021 
L 333.361458 265.574551 
L 333.568125 264.414321 
L 333.774792 262.508546 
L 333.981458 261.902853 
L 334.601458 267.550159 
L 334.808125 267.335148 
L 335.428125 264.56 
L 335.634792 265.306058 
L 336.048125 268.150601 
L 336.254792 268.542786 
L 336.461458 268.099162 
L 336.668125 266.754143 
L 337.288125 261.073485 
L 337.494792 260.773685 
L 337.701458 261.127656 
L 337.908125 260.984825 
L 338.114792 258.777759 
L 338.528125 251.284918 
L 338.734792 251.970436 
L 339.148125 258.25711 
L 339.354792 259.498696 
L 339.561458 258.578649 
L 339.768125 254.553382 
L 340.181458 244.268703 
L 340.388125 246.148925 
L 341.008125 261.354735 
L 341.214792 261.732733 
L 341.421458 261.222924 
L 341.628125 261.383766 
L 342.661458 265.270198 
L 342.868125 265.065779 
L 343.074792 264.64102 
L 343.281458 264.964258 
L 343.488125 265.678964 
L 343.694792 265.382819 
L 343.901458 263.086439 
L 344.521458 251.404172 
L 344.728125 250.918567 
L 344.934792 252.657216 
L 345.348125 259.111567 
L 345.554792 259.141837 
L 345.968125 255.419461 
L 346.381458 254.658203 
L 346.588125 253.715593 
L 346.794792 254.309538 
L 347.414792 265.904561 
L 347.621458 262.022748 
L 348.241458 236.354975 
L 348.448125 241.763956 
L 348.861458 258.816977 
L 349.274792 267.273223 
L 349.688125 272.244702 
L 349.894792 271.952235 
L 350.514792 264.924058 
L 350.721458 264.499199 
L 350.928125 264.825033 
L 351.341458 265.804639 
L 351.548125 265.432924 
L 351.961458 263.526485 
L 352.168125 263.288075 
L 352.374792 263.841476 
L 352.994792 267.488723 
L 353.408125 264.859389 
L 353.614792 264.844333 
L 354.028125 268.93385 
L 354.234792 269.470095 
L 354.441458 267.406677 
L 355.061458 252.936189 
L 355.474792 234.580928 
L 356.094792 194.989261 
L 356.301458 191.123572 
L 356.508125 201.485195 
L 357.128125 259.015095 
L 357.334792 267.261544 
L 357.541458 269.588926 
L 357.748125 268.850543 
L 358.161458 266.042749 
L 358.368125 266.134714 
L 358.988125 269.582832 
L 359.194792 269.835004 
L 359.401458 268.970535 
L 359.814792 262.578548 
L 360.021458 259.548106 
L 360.228125 258.397201 
L 360.434792 259.530662 
L 361.054792 267.594679 
L 361.261458 267.116006 
L 361.674792 263.61256 
L 361.881458 259.358588 
L 362.088125 245.213579 
L 362.708125 156.629622 
L 362.914792 149.231437 
L 363.121458 160.101905 
L 363.948125 260.20766 
L 364.361458 272.81739 
L 364.568125 274.277124 
L 364.774792 274.150983 
L 365.188125 273.354843 
L 365.601458 271.082198 
L 365.808125 270.907785 
L 366.014792 271.319353 
L 366.221458 271.015977 
L 366.428125 270.281529 
L 366.634792 270.409669 
L 367.048125 272.374841 
L 367.254792 272.147604 
L 368.081458 267.336081 
L 368.494792 266.802915 
L 368.701458 265.992287 
L 369.114792 263.107474 
L 369.321458 262.669217 
L 369.528125 263.876127 
L 369.941458 268.024265 
L 370.148125 267.291373 
L 370.561458 263.695435 
L 370.768125 264.640788 
L 370.974792 266.246689 
L 371.181458 266.42593 
L 371.388125 264.893953 
L 371.594792 261.457764 
L 372.008125 247.750709 
L 372.421458 225.321526 
L 372.834792 199.102626 
L 373.041458 204.082303 
L 373.454792 231.824179 
L 373.868125 243.863074 
L 374.901458 270.136906 
L 375.108125 266.577933 
L 375.521458 251.266713 
L 375.728125 249.787113 
L 376.141458 260.643377 
L 376.554792 270.425334 
L 376.761458 272.10363 
L 376.968125 271.646981 
L 377.174792 268.81117 
L 377.794792 254.274749 
L 378.001458 254.840722 
L 378.621458 268.173998 
L 378.828125 268.830622 
L 379.034792 266.16476 
L 379.448125 257.875027 
L 379.654792 256.711033 
L 379.861458 257.120487 
L 380.068125 258.173915 
L 380.688125 265.240674 
L 380.894792 265.164493 
L 381.101458 265.578329 
L 381.514792 269.086957 
L 381.721458 269.451701 
L 381.928125 267.799761 
L 382.341458 258.0775 
L 382.548125 252.554512 
L 382.754792 250.028942 
L 382.961458 251.219557 
L 383.374792 256.012396 
L 383.788125 258.876727 
L 383.994792 260.470206 
L 384.201458 260.662791 
L 384.821458 256.308805 
L 385.028125 257.009055 
L 385.234792 258.874952 
L 385.441458 259.108898 
L 385.854792 254.629417 
L 386.061458 254.286119 
L 386.474792 257.482739 
L 386.888125 261.323793 
L 387.301458 266.264966 
L 387.508125 267.199166 
L 387.921458 267.641659 
L 388.128125 267.249952 
L 388.748125 263.161637 
L 389.161458 262.350155 
L 389.368125 262.307933 
L 389.574792 262.955267 
L 389.781458 263.074194 
L 389.988125 261.12222 
L 390.401458 252.02341 
L 391.228125 224.350338 
L 391.434792 223.101186 
L 391.641458 222.712345 
L 391.848125 223.055377 
L 392.054792 226.257865 
L 392.468125 247.602281 
L 392.881458 266.187245 
L 393.088125 269.723655 
L 393.294792 271.218574 
L 393.501458 270.923611 
L 394.121458 266.146376 
L 394.328125 266.464755 
L 394.741458 267.543969 
L 394.948125 267.247557 
L 395.568125 265.118633 
L 395.774792 264.567597 
L 395.981458 264.704778 
L 396.188125 265.20876 
L 396.394792 265.197393 
L 396.601458 265.055808 
L 396.808125 265.097837 
L 397.221458 264.502302 
L 397.428125 264.119888 
L 397.634792 262.762773 
L 398.048125 257.72531 
L 398.254792 258.208769 
L 398.461458 260.535684 
L 398.668125 261.171285 
L 398.874792 258.481586 
L 400.321458 222.38535 
L 400.528125 230.842961 
L 400.941458 256.854071 
L 401.354792 267.279503 
L 401.561458 270.092238 
L 401.768125 270.921122 
L 401.974792 269.837591 
L 403.834792 254.771852 
L 404.041458 257.686565 
L 404.454792 265.684808 
L 404.868125 266.702299 
L 405.281458 268.986901 
L 405.488125 267.99525 
L 405.901458 264.713388 
L 406.314792 265.19282 
L 406.728125 262.899321 
L 406.934792 263.041226 
L 407.348125 265.386901 
L 407.554792 264.609399 
L 408.588125 250.648471 
L 409.001458 249.079791 
L 409.208125 247.661174 
L 409.414792 247.886843 
L 410.034792 257.455426 
L 410.241458 252.904915 
L 410.654792 241.5418 
L 410.861458 245.703468 
L 411.274792 260.198454 
L 411.481458 262.583144 
L 412.101458 265.117324 
L 412.308125 264.841181 
L 412.514792 261.715782 
L 412.721458 253.691812 
L 413.134792 218.620503 
L 413.754792 133.86804 
L 413.961458 139.218322 
L 414.788125 253.226214 
L 415.201458 271.489129 
L 415.408125 272.307248 
L 415.821458 270.103486 
L 416.028125 269.540872 
L 416.234792 266.506069 
L 416.854792 246.441098 
L 417.268125 261.4541 
L 417.681458 270.893041 
L 417.888125 271.524588 
L 418.301458 270.141028 
L 418.714792 271.142011 
L 418.921458 270.908665 
L 419.128125 270.307709 
L 419.334792 270.120438 
L 419.541458 270.275954 
L 419.748125 270.265052 
L 419.954792 269.654047 
L 420.368125 267.963251 
L 420.574792 268.83329 
L 420.988125 271.250029 
L 421.194792 271.634104 
L 421.401458 271.312286 
L 421.608125 269.352143 
L 422.228125 259.282135 
L 422.434792 259.413886 
L 423.054792 266.863219 
L 423.261458 265.602606 
L 423.468125 265.394317 
L 424.088125 270.999685 
L 424.294792 271.140625 
L 424.708125 270.309826 
L 424.914792 270.53306 
L 425.121458 270.275266 
L 425.741458 266.433776 
L 425.948125 265.909172 
L 426.361458 264.469428 
L 426.568125 264.124226 
L 426.774792 262.742832 
L 427.188125 258.035077 
L 427.394792 259.059974 
L 427.601458 260.863714 
L 427.808125 259.524838 
L 428.014792 253.967001 
L 428.221458 243.453155 
L 428.841458 199.404662 
L 429.048125 211.808096 
L 429.461458 249.667655 
L 429.874792 264.877865 
L 430.081458 267.671773 
L 430.288125 268.624209 
L 430.494792 268.77267 
L 430.701458 269.150051 
L 431.114792 272.269874 
L 431.321458 273.674734 
L 431.528125 273.757443 
L 432.148125 270.863026 
L 432.354792 270.656735 
L 432.974792 269.563708 
L 433.181458 267.659698 
L 433.594792 262.22026 
L 434.008125 258.385396 
L 434.214792 255.626478 
L 434.421458 249.972409 
L 435.041458 212.998554 
L 435.248125 214.161219 
L 435.661458 233.804809 
L 436.074792 255.200699 
L 436.488125 264.260775 
L 437.108125 268.241136 
L 437.314792 265.599192 
L 437.728125 247.423185 
L 438.141458 230.346295 
L 438.348125 227.304155 
L 438.554792 229.912812 
L 439.588125 262.161681 
L 440.001458 266.431808 
L 440.208125 266.97661 
L 440.621458 266.250952 
L 440.828125 266.779089 
L 441.448125 270.466075 
L 441.654792 269.279238 
L 442.068125 265.519904 
L 442.274792 264.454629 
L 442.688125 263.507193 
L 443.308125 260.759502 
L 443.514792 260.480044 
L 443.928125 258.423856 
L 444.134792 258.82509 
L 444.548125 262.930821 
L 444.754792 263.663834 
L 444.961458 262.975425 
L 445.168125 261.774336 
L 445.374792 261.323952 
L 445.581458 262.157872 
L 445.994792 264.526458 
L 446.201458 264.377553 
L 446.408125 263.780279 
L 446.614792 263.53056 
L 447.028125 264.045647 
L 447.234792 264.683233 
L 447.648125 267.68023 
L 447.854792 267.695198 
L 448.061458 266.561961 
L 448.268125 264.262975 
L 449.094792 247.443401 
L 449.301458 244.970238 
L 449.714792 235.042254 
L 449.921458 238.366441 
L 450.541458 259.309319 
L 450.954792 264.724474 
L 451.368125 266.266472 
L 451.781458 269.595646 
L 451.988125 269.713314 
L 453.021458 266.597535 
L 453.228125 266.780446 
L 453.434792 266.234995 
L 453.848125 260.660484 
L 454.054792 257.77665 
L 454.261458 256.54902 
L 454.468125 256.881682 
L 454.881458 259.156017 
L 455.294792 263.752448 
L 455.501458 263.722395 
L 455.708125 262.283146 
L 455.914792 262.247288 
L 456.328125 265.78238 
L 456.534792 265.760488 
L 456.741458 265.034432 
L 456.948125 265.07561 
L 457.154792 265.70302 
L 457.361458 265.748338 
L 457.981458 262.425037 
L 458.188125 262.569817 
L 458.394792 263.189645 
L 458.601458 263.279856 
L 458.808125 263.163463 
L 459.014792 263.348138 
L 459.221458 262.932411 
L 459.428125 260.55429 
L 459.841458 251.006562 
L 460.048125 249.695493 
L 460.461458 255.485142 
L 460.668125 255.50715 
L 461.081458 251.804981 
L 461.288125 252.39303 
L 461.701458 257.060713 
L 461.908125 256.844703 
L 462.114792 252.952067 
L 462.734792 229.538751 
L 462.941458 230.982066 
L 463.561458 250.365133 
L 464.181458 258.580514 
L 464.388125 259.317359 
L 464.594792 256.869852 
L 465.214792 241.898528 
L 465.421458 244.408186 
L 465.628125 248.630372 
L 465.834792 250.22777 
L 466.041458 246.550913 
L 466.661458 214.064747 
L 466.868125 224.14491 
L 467.281458 261.403189 
L 467.488125 269.377422 
L 467.694792 272.051817 
L 467.901458 272.549224 
L 468.108125 271.117976 
L 468.521458 262.195946 
L 468.934792 253.280123 
L 469.348125 247.711958 
L 469.554792 240.64298 
L 470.174792 185.008793 
L 470.381458 189.346206 
L 471.208125 269.218728 
L 471.414792 273.438271 
L 471.621458 274.450521 
L 471.828125 274.427534 
L 472.034792 273.888758 
L 472.241458 272.240473 
L 472.654792 266.842839 
L 472.861458 265.664291 
L 473.068125 266.711477 
L 473.481458 270.75969 
L 473.688125 271.571465 
L 473.894792 271.599925 
L 474.308125 270.838294 
L 474.721458 269.497906 
L 474.928125 268.265509 
L 475.341458 264.184162 
L 475.548125 264.150776 
L 475.754792 265.248825 
L 475.961458 264.874498 
L 476.168125 263.024805 
L 476.374792 262.181271 
L 476.788125 264.29245 
L 476.994792 263.481065 
L 477.201458 258.689822 
L 477.408125 247.121865 
L 477.821458 216.093535 
L 478.028125 221.129604 
L 478.441458 260.055263 
L 478.648125 268.522769 
L 478.854792 269.338422 
L 479.268125 266.493095 
L 479.474792 267.700837 
L 479.888125 272.39742 
L 480.094792 273.078285 
L 480.301458 272.309412 
L 480.714792 267.831039 
L 481.334792 259.339771 
L 481.748125 251.67674 
L 481.954792 252.378007 
L 482.574792 261.905612 
L 482.988125 265.201987 
L 483.194792 263.863179 
L 483.608125 256.402326 
L 483.814792 256.982825 
L 484.228125 263.112152 
L 484.434792 262.850849 
L 485.261458 251.933825 
L 485.468125 252.855369 
L 486.088125 263.55243 
L 486.294792 261.453301 
L 486.501458 249.508533 
L 487.121458 169.502749 
L 487.534792 112.586908 
L 487.741458 109.990777 
L 487.948125 140.277912 
L 488.568125 262.657109 
L 488.774792 274.725596 
L 488.981458 277.444051 
L 489.188125 276.62494 
L 490.634792 264.46628 
L 490.841458 264.844961 
L 491.461458 272.179436 
L 491.668125 272.377081 
L 492.081458 271.876039 
L 492.494792 272.0466 
L 492.701458 271.983797 
L 492.908125 271.584864 
L 493.321458 270.088712 
L 493.941458 269.798223 
L 494.148125 269.369958 
L 494.354792 267.799583 
L 494.768125 263.160392 
L 494.974792 264.070624 
L 495.388125 267.773296 
L 495.594792 268.046269 
L 495.801458 267.551278 
L 496.421458 262.404999 
L 496.628125 263.582023 
L 497.041458 267.139521 
L 497.248125 266.27045 
L 497.661458 261.128777 
L 498.281458 244.78453 
L 498.488125 245.249242 
L 498.901458 255.611037 
L 499.108125 257.715787 
L 499.314792 258.037231 
L 499.934792 261.192386 
L 500.141458 260.82184 
L 500.348125 256.467313 
L 500.968125 225.690995 
L 501.174792 226.187118 
L 501.381458 230.30919 
L 501.588125 231.236235 
L 502.001458 222.926469 
L 502.414792 213.675706 
L 502.828125 208.75808 
L 503.034792 211.585244 
L 503.448125 239.952341 
L 503.861458 260.891421 
L 504.274792 266.569327 
L 504.688125 268.953309 
L 504.894792 269.201589 
L 505.101458 269.154987 
L 505.514792 268.724298 
L 505.721458 269.155588 
L 506.134792 271.745762 
L 506.341458 271.93105 
L 506.961458 268.583953 
L 507.374792 268.715125 
L 507.581458 267.945509 
L 507.994792 265.767577 
L 508.201458 265.786804 
L 508.821458 267.237016 
L 509.028125 267.180248 
L 509.854792 265.1902 
L 510.061458 264.275248 
L 510.681458 257.479198 
L 510.888125 258.306424 
L 511.508125 265.978904 
L 511.714792 265.918018 
L 511.921458 265.040179 
L 512.128125 265.092468 
L 512.541458 266.558004 
L 512.748125 265.841343 
L 513.161458 263.971381 
L 513.368125 263.34861 
L 513.574792 261.989426 
L 514.194792 256.181212 
L 514.608125 253.909026 
L 514.814792 252.182152 
L 515.021458 251.734393 
L 515.848125 258.833353 
L 516.261458 254.805404 
L 516.468125 255.205735 
L 516.881458 263.449637 
L 517.088125 264.504152 
L 517.294792 263.616292 
L 517.501458 263.366656 
L 517.914792 265.488732 
L 518.121458 265.4859 
L 518.741458 262.703013 
L 518.948125 260.230631 
L 519.361458 250.45495 
L 519.981458 228.969228 
L 520.188125 234.616967 
L 520.808125 258.651192 
L 521.014792 262.870474 
L 521.221458 264.297588 
L 521.428125 263.185987 
L 521.841458 258.695726 
L 522.048125 258.387213 
L 522.874792 267.781349 
L 523.081458 267.696678 
L 523.288125 268.096908 
L 523.908125 270.144011 
L 524.114792 267.922038 
L 524.321458 257.483857 
L 524.941458 178.02023 
L 525.148125 184.889754 
L 525.768125 264.866329 
L 525.974792 270.871863 
L 526.181458 272.858177 
L 526.388125 273.658496 
L 526.594792 273.693185 
L 527.008125 272.70893 
L 527.214792 273.348866 
L 527.628125 275.720781 
L 527.834792 275.608233 
L 528.868125 271.432648 
L 529.074792 271.233703 
L 529.281458 270.306845 
L 530.108125 263.62376 
L 530.314792 260.378621 
L 530.521458 258.982632 
L 530.728125 260.964973 
L 531.348125 271.229951 
L 531.554792 271.531776 
L 532.381458 267.71744 
L 532.588125 267.861134 
L 532.794792 268.45435 
L 533.001458 267.661182 
L 533.208125 264.854205 
L 533.414792 260.35733 
L 533.621458 251.679602 
L 534.034792 225.959614 
L 534.241458 231.111372 
L 534.654792 268.151843 
L 534.861458 275.74707 
L 535.068125 276.730578 
L 536.101458 271.256298 
L 536.514792 266.800329 
L 536.721458 266.012069 
L 537.134792 266.824891 
L 537.341458 265.490623 
L 537.754792 260.100078 
L 537.961458 259.821782 
L 538.581458 268.444217 
L 538.788125 268.386921 
L 539.201458 266.754449 
L 539.408125 266.672127 
L 539.614792 265.834628 
L 539.821458 262.948696 
L 540.854792 239.981139 
L 541.061458 241.331706 
L 541.474792 252.334855 
L 541.888125 261.190892 
L 542.714792 265.819747 
L 542.921458 265.420553 
L 543.128125 261.295533 
L 543.334792 251.950973 
L 543.541458 235.932451 
L 543.954792 174.54595 
L 544.368125 92.066293 
L 544.574792 71.456601 
L 544.781458 86.233297 
L 545.608125 268.140848 
L 545.814792 277.110378 
L 546.021458 279.438899 
L 546.228125 279.123783 
L 547.261458 274.60891 
L 547.674792 272.915828 
L 547.881458 271.103307 
L 548.294792 265.31824 
L 548.501458 264.433217 
L 549.121458 269.058653 
L 549.328125 269.22689 
L 549.534792 269.969173 
L 549.948125 271.776333 
L 550.154792 271.501095 
L 550.361458 270.189856 
L 550.981458 263.239464 
L 551.188125 262.543549 
L 551.394792 263.053422 
L 551.808125 267.294891 
L 552.014792 267.713304 
L 552.221458 265.486951 
L 552.841458 254.166857 
L 553.048125 254.689823 
L 553.461458 262.122272 
L 553.874792 268.470057 
L 554.081458 268.169942 
L 554.288125 266.568914 
L 554.494792 265.885378 
L 555.114792 268.372472 
L 555.321458 269.223403 
L 555.528125 269.545201 
L 555.941458 268.144787 
L 556.148125 268.343712 
L 556.561458 270.481738 
L 556.768125 270.664477 
L 556.974792 269.900992 
L 557.594792 265.813657 
L 557.801458 262.463202 
L 558.008125 252.049362 
L 558.421458 194.023106 
L 558.834792 146.181653 
L 559.041458 133.942769 
L 559.248125 131.522893 
L 559.454792 153.451069 
L 559.868125 233.779602 
L 560.074792 254.890166 
L 560.488125 268.110827 
L 560.901458 274.1109 
L 561.108125 275.097423 
L 561.314792 275.193717 
L 561.521458 274.502995 
L 561.934792 271.845291 
L 562.141458 271.486253 
L 562.348125 271.404235 
L 562.554792 270.587376 
L 562.968125 267.084157 
L 563.174792 266.60829 
L 563.381458 267.971129 
L 563.794792 271.472874 
L 564.001458 271.27677 
L 564.621458 268.405977 
L 565.034792 268.293779 
L 565.448125 267.698707 
L 565.861458 267.651648 
L 566.068125 266.543297 
L 566.688125 259.49109 
L 566.894792 259.877367 
L 567.308125 262.634052 
L 567.514792 262.3942 
L 567.928125 260.115491 
L 568.134792 261.163837 
L 568.961458 268.595019 
L 569.168125 267.99131 
L 569.581458 261.930425 
L 569.788125 261.296928 
L 570.614792 270.106264 
L 570.821458 270.169168 
L 571.028125 269.244035 
L 571.441458 265.458379 
L 571.854792 260.882467 
L 572.061458 261.523365 
L 572.474792 266.738034 
L 572.681458 267.318471 
L 572.888125 266.834936 
L 573.094792 266.912355 
L 573.508125 268.150718 
L 573.714792 267.421746 
L 573.921458 266.163849 
L 574.128125 265.686569 
L 574.541458 267.145708 
L 574.954792 269.209023 
L 575.161458 268.96429 
L 575.781458 257.08253 
L 575.988125 257.872222 
L 576.401458 263.223197 
L 576.608125 261.589717 
L 576.814792 251.754809 
L 577.228125 215.945293 
L 577.434792 211.452116 
L 577.641458 222.499939 
L 578.054792 254.025355 
L 578.261458 261.535958 
L 578.468125 264.112821 
L 578.674792 264.169191 
L 578.881458 262.629309 
L 579.088125 259.488593 
L 579.294792 253.637664 
L 579.708125 236.690218 
L 579.914792 238.366867 
L 580.534792 265.214043 
L 580.948125 269.920648 
L 581.154792 270.804998 
L 581.361458 270.465923 
L 581.981458 264.410564 
L 582.188125 265.284879 
L 582.394792 265.275673 
L 582.808125 264.441493 
L 583.014792 262.66428 
L 583.634792 249.609293 
L 583.841458 250.250504 
L 584.874792 266.704396 
L 585.081458 267.612445 
L 585.288125 266.638688 
L 585.701458 261.420838 
L 586.528125 256.867669 
L 586.734792 259.286933 
L 587.148125 266.937721 
L 587.354792 268.306595 
L 587.768125 269.666672 
L 588.181458 271.509433 
L 588.388125 271.194375 
L 589.008125 266.629987 
L 589.214792 267.06029 
L 589.421458 268.351825 
L 589.628125 268.619789 
L 589.834792 266.987894 
L 590.454792 257.932933 
L 590.661458 251.868925 
L 591.074792 232.408512 
L 591.281458 230.691349 
L 591.488125 238.291224 
L 592.108125 267.654287 
L 592.314792 269.985497 
L 592.521458 268.876909 
L 592.934792 264.363931 
L 593.141458 263.18219 
L 593.348125 263.430946 
L 593.968125 268.836403 
L 594.174792 269.006734 
L 594.381458 268.842472 
L 594.588125 269.473654 
L 595.001458 272.575917 
L 595.208125 272.656443 
L 595.828125 268.861076 
L 596.034792 268.859132 
L 596.241458 269.537603 
L 596.654792 271.951926 
L 596.861458 271.93203 
L 597.068125 269.671865 
L 597.274792 263.514409 
L 598.101458 218.95447 
L 598.308125 213.666114 
L 598.514792 213.618315 
L 598.721458 221.783557 
L 599.341458 256.180559 
L 600.168125 268.283418 
L 600.374792 268.5208 
L 600.788125 266.314284 
L 600.994792 268.140785 
L 601.201458 271.097378 
L 601.408125 272.155197 
L 601.614792 270.733376 
L 602.028125 267.319545 
L 602.234792 267.821681 
L 602.441458 269.194937 
L 602.648125 269.781545 
L 603.061458 268.480224 
L 603.268125 267.41754 
L 603.681458 261.33935 
L 603.888125 260.68983 
L 604.301458 264.589183 
L 604.508125 264.698996 
L 604.714792 264.398016 
L 604.921458 264.430879 
L 605.128125 263.06804 
L 605.334792 257.102044 
L 605.954792 227.557273 
L 606.161458 227.690264 
L 606.368125 228.911203 
L 606.574792 227.321141 
L 607.194792 215.779703 
L 607.401458 217.298358 
L 607.814792 234.636734 
L 608.228125 253.570761 
L 608.641458 264.543896 
L 609.054792 270.218105 
L 609.261458 270.604424 
L 609.468125 270.559099 
L 609.881458 271.190281 
L 610.088125 270.935258 
L 610.294792 270.33116 
L 610.501458 270.160453 
L 610.708125 270.718076 
L 610.914792 272.216337 
L 611.328125 279.703548 
L 611.328125 279.703548 
" clip-path="url(#p3de5f37e10)" style="fill: none; stroke: #000000; stroke-width: 1.5; stroke-linecap: square"/>
   </g>
   <g id="line2d_14">
    <defs>
     <path id="m2ca55cccd1" d="M 0 3 
C 0.795609 3 1.55874 2.683901 2.12132 2.12132 
C 2.683901 1.55874 3 0.795609 3 0 
C 3 -0.795609 2.683901 -1.55874 2.12132 -2.12132 
C 1.55874 -2.683901 0.795609 -3 0 -3 
C -0.795609 -3 -1.55874 -2.683901 -2.12132 -2.12132 
C -2.683901 -1.55874 -3 -0.795609 -3 0 
C -3 0.795609 -2.683901 1.55874 -2.12132 2.12132 
C -1.55874 2.683901 -0.795609 3 0 3 
z
" style="stroke: #ff0000"/>
    </defs>
    <g clip-path="url(#p3de5f37e10)">
     <use xlink:href="#m2ca55cccd1" x="-1" y="193.69603" style="fill: #ff0000; stroke: #ff0000"/>
     <use xlink:href="#m2ca55cccd1" x="5.381458" y="203.496668" style="fill: #ff0000; stroke: #ff0000"/>
     <use xlink:href="#m2ca55cccd1" x="17.988125" y="221.087153" style="fill: #ff0000; stroke: #ff0000"/>
     <use xlink:href="#m2ca55cccd1" x="27.908125" y="216.026253" style="fill: #ff0000; stroke: #ff0000"/>
     <use xlink:href="#m2ca55cccd1" x="32.454792" y="94.433841" style="fill: #ff0000; stroke: #ff0000"/>
     <use xlink:href="#m2ca55cccd1" x="39.688125" y="220.688898" style="fill: #ff0000; stroke: #ff0000"/>
     <use xlink:href="#m2ca55cccd1" x="58.494792" y="88.596189" style="fill: #ff0000; stroke: #ff0000"/>
     <use xlink:href="#m2ca55cccd1" x="66.348125" y="198.577918" style="fill: #ff0000; stroke: #ff0000"/>
     <use xlink:href="#m2ca55cccd1" x="107.061458" y="224.844383" style="fill: #ff0000; stroke: #ff0000"/>
     <use xlink:href="#m2ca55cccd1" x="115.121458" y="188.201344" style="fill: #ff0000; stroke: #ff0000"/>
     <use xlink:href="#m2ca55cccd1" x="142.194792" y="198.470959" style="fill: #ff0000; stroke: #ff0000"/>
     <use xlink:href="#m2ca55cccd1" x="154.594792" y="211.840989" style="fill: #ff0000; stroke: #ff0000"/>
     <use xlink:href="#m2ca55cccd1" x="157.281458" y="228.352511" style="fill: #ff0000; stroke: #ff0000"/>
     <use xlink:href="#m2ca55cccd1" x="167.614792" y="183.491119" style="fill: #ff0000; stroke: #ff0000"/>
     <use xlink:href="#m2ca55cccd1" x="180.221458" y="174.475476" style="fill: #ff0000; stroke: #ff0000"/>
     <use xlink:href="#m2ca55cccd1" x="186.834792" y="92.008833" style="fill: #ff0000; stroke: #ff0000"/>
     <use xlink:href="#m2ca55cccd1" x="209.774792" y="218.826156" style="fill: #ff0000; stroke: #ff0000"/>
     <use xlink:href="#m2ca55cccd1" x="219.901458" y="102.357226" style="fill: #ff0000; stroke: #ff0000"/>
     <use xlink:href="#m2ca55cccd1" x="232.921458" y="174.176112" style="fill: #ff0000; stroke: #ff0000"/>
     <use xlink:href="#m2ca55cccd1" x="244.288125" y="154.601704" style="fill: #ff0000; stroke: #ff0000"/>
     <use xlink:href="#m2ca55cccd1" x="253.588125" y="202.295948" style="fill: #ff0000; stroke: #ff0000"/>
     <use xlink:href="#m2ca55cccd1" x="265.988125" y="159.48965" style="fill: #ff0000; stroke: #ff0000"/>
     <use xlink:href="#m2ca55cccd1" x="281.488125" y="115.836557" style="fill: #ff0000; stroke: #ff0000"/>
     <use xlink:href="#m2ca55cccd1" x="293.268125" y="195.317779" style="fill: #ff0000; stroke: #ff0000"/>
     <use xlink:href="#m2ca55cccd1" x="317.034792" y="189.655808" style="fill: #ff0000; stroke: #ff0000"/>
     <use xlink:href="#m2ca55cccd1" x="326.748125" y="199.509671" style="fill: #ff0000; stroke: #ff0000"/>
     <use xlink:href="#m2ca55cccd1" x="331.914792" y="204.358563" style="fill: #ff0000; stroke: #ff0000"/>
     <use xlink:href="#m2ca55cccd1" x="356.301458" y="191.123572" style="fill: #ff0000; stroke: #ff0000"/>
     <use xlink:href="#m2ca55cccd1" x="362.914792" y="149.231437" style="fill: #ff0000; stroke: #ff0000"/>
     <use xlink:href="#m2ca55cccd1" x="372.834792" y="199.102626" style="fill: #ff0000; stroke: #ff0000"/>
     <use xlink:href="#m2ca55cccd1" x="391.641458" y="222.712345" style="fill: #ff0000; stroke: #ff0000"/>
     <use xlink:href="#m2ca55cccd1" x="400.321458" y="222.38535" style="fill: #ff0000; stroke: #ff0000"/>
     <use xlink:href="#m2ca55cccd1" x="413.754792" y="133.86804" style="fill: #ff0000; stroke: #ff0000"/>
     <use xlink:href="#m2ca55cccd1" x="428.841458" y="199.404662" style="fill: #ff0000; stroke: #ff0000"/>
     <use xlink:href="#m2ca55cccd1" x="435.041458" y="212.998554" style="fill: #ff0000; stroke: #ff0000"/>
     <use xlink:href="#m2ca55cccd1" x="438.348125" y="227.304155" style="fill: #ff0000; stroke: #ff0000"/>
     <use xlink:href="#m2ca55cccd1" x="466.661458" y="214.064747" style="fill: #ff0000; stroke: #ff0000"/>
     <use xlink:href="#m2ca55cccd1" x="470.174792" y="185.008793" style="fill: #ff0000; stroke: #ff0000"/>
     <use xlink:href="#m2ca55cccd1" x="477.821458" y="216.093535" style="fill: #ff0000; stroke: #ff0000"/>
     <use xlink:href="#m2ca55cccd1" x="487.741458" y="109.990777" style="fill: #ff0000; stroke: #ff0000"/>
     <use xlink:href="#m2ca55cccd1" x="502.828125" y="208.75808" style="fill: #ff0000; stroke: #ff0000"/>
     <use xlink:href="#m2ca55cccd1" x="524.941458" y="178.02023" style="fill: #ff0000; stroke: #ff0000"/>
     <use xlink:href="#m2ca55cccd1" x="534.034792" y="225.959614" style="fill: #ff0000; stroke: #ff0000"/>
     <use xlink:href="#m2ca55cccd1" x="544.574792" y="71.456601" style="fill: #ff0000; stroke: #ff0000"/>
     <use xlink:href="#m2ca55cccd1" x="559.248125" y="131.522893" style="fill: #ff0000; stroke: #ff0000"/>
     <use xlink:href="#m2ca55cccd1" x="577.434792" y="211.452116" style="fill: #ff0000; stroke: #ff0000"/>
     <use xlink:href="#m2ca55cccd1" x="598.514792" y="213.618315" style="fill: #ff0000; stroke: #ff0000"/>
     <use xlink:href="#m2ca55cccd1" x="607.194792" y="215.779703" style="fill: #ff0000; stroke: #ff0000"/>
    </g>
   </g>
   <g id="line2d_15">
    <path d="M 53.328125 228.480796 
L 611.328125 228.480796 
" clip-path="url(#p3de5f37e10)" style="fill: none; stroke-dasharray: 5.55,2.4; stroke-dashoffset: 0; stroke: #808080; stroke-width: 1.5"/>
   </g>
   <g id="line2d_16">
    <path d="M 53.328125 256.051844 
L 611.328125 256.051844 
" clip-path="url(#p3de5f37e10)" style="fill: none; stroke-dasharray: 5.55,2.4; stroke-dashoffset: 0; stroke: #0000ff; stroke-width: 1.5"/>
   </g>
   <g id="line2d_17">
    <path d="M 53.328125 71.456601 
L 611.328125 71.456601 
" clip-path="url(#p3de5f37e10)" style="fill: none; stroke-dasharray: 5.55,2.4; stroke-dashoffset: 0; stroke: #ff0000; stroke-width: 1.5"/>
   </g>
   <g id="line2d_18">
    <path d="M 53.328125 128.15272 
L 611.328125 128.15272 
" clip-path="url(#p3de5f37e10)" style="fill: none; stroke-dasharray: 5.55,2.4; stroke-dashoffset: 0; stroke: #008000; stroke-width: 1.5"/>
   </g>
   <g id="patch_3">
    <path d="M 53.328125 288.199219 
L 53.328125 10.999219 
" style="fill: none; stroke: #000000; stroke-width: 0.8; stroke-linejoin: miter; stroke-linecap: square"/>
   </g>
   <g id="patch_4">
    <path d="M 611.328125 288.199219 
L 611.328125 10.999219 
" style="fill: none; stroke: #000000; stroke-width: 0.8; stroke-linejoin: miter; stroke-linecap: square"/>
   </g>
   <g id="patch_5">
    <path d="M 53.328125 288.199219 
L 611.328125 288.199219 
" style="fill: none; stroke: #000000; stroke-width: 0.8; stroke-linejoin: miter; stroke-linecap: square"/>
   </g>
   <g id="patch_6">
    <path d="M 53.328125 10.999219 
L 611.328125 10.999219 
" style="fill: none; stroke: #000000; stroke-width: 0.8; stroke-linejoin: miter; stroke-linecap: square"/>
   </g>
   <g id="legend_1">
    <g id="patch_7">
     <path d="M 60.328125 77.711719 
L 142.620313 77.711719 
Q 144.620313 77.711719 144.620313 75.711719 
L 144.620313 17.999219 
Q 144.620313 15.999219 142.620313 15.999219 
L 60.328125 15.999219 
Q 58.328125 15.999219 58.328125 17.999219 
L 58.328125 75.711719 
Q 58.328125 77.711719 60.328125 77.711719 
z
" style="fill: #ffffff; opacity: 0.8; stroke: #cccccc; stroke-linejoin: miter"/>
    </g>
    <g id="line2d_19">
     <path d="M 62.328125 24.097656 
L 72.328125 24.097656 
L 82.328125 24.097656 
" style="fill: none; stroke-dasharray: 5.55,2.4; stroke-dashoffset: 0; stroke: #808080; stroke-width: 1.5"/>
    </g>
    <g id="text_15">
     <!-- Threshold -->
     <g transform="translate(90.328125 27.597656) scale(0.1 -0.1)">
      <defs>
       <path id="DejaVuSans-68" d="M 3513 2113 
L 3513 0 
L 2938 0 
L 2938 2094 
Q 2938 2591 2744 2837 
Q 2550 3084 2163 3084 
Q 1697 3084 1428 2787 
Q 1159 2491 1159 1978 
L 1159 0 
L 581 0 
L 581 4863 
L 1159 4863 
L 1159 2956 
Q 1366 3272 1645 3428 
Q 1925 3584 2291 3584 
Q 2894 3584 3203 3211 
Q 3513 2838 3513 2113 
z
" transform="scale(0.015625)"/>
       <path id="DejaVuSans-72" d="M 2631 2963 
Q 2534 3019 2420 3045 
Q 2306 3072 2169 3072 
Q 1681 3072 1420 2755 
Q 1159 2438 1159 1844 
L 1159 0 
L 581 0 
L 581 3500 
L 1159 3500 
L 1159 2956 
Q 1341 3275 1631 3429 
Q 1922 3584 2338 3584 
Q 2397 3584 2469 3576 
Q 2541 3569 2628 3553 
L 2631 2963 
z
" transform="scale(0.015625)"/>
       <path id="DejaVuSans-6c" d="M 603 4863 
L 1178 4863 
L 1178 0 
L 603 0 
L 603 4863 
z
" transform="scale(0.015625)"/>
       <path id="DejaVuSans-64" d="M 2906 2969 
L 2906 4863 
L 3481 4863 
L 3481 0 
L 2906 0 
L 2906 525 
Q 2725 213 2448 61 
Q 2172 -91 1784 -91 
Q 1150 -91 751 415 
Q 353 922 353 1747 
Q 353 2572 751 3078 
Q 1150 3584 1784 3584 
Q 2172 3584 2448 3432 
Q 2725 3281 2906 2969 
z
M 947 1747 
Q 947 1113 1208 752 
Q 1469 391 1925 391 
Q 2381 391 2643 752 
Q 2906 1113 2906 1747 
Q 2906 2381 2643 2742 
Q 2381 3103 1925 3103 
Q 1469 3103 1208 2742 
Q 947 2381 947 1747 
z
" transform="scale(0.015625)"/>
      </defs>
      <use xlink:href="#DejaVuSans-54"/>
      <use xlink:href="#DejaVuSans-68" x="61.083984"/>
      <use xlink:href="#DejaVuSans-72" x="124.462891"/>
      <use xlink:href="#DejaVuSans-65" x="163.326172"/>
      <use xlink:href="#DejaVuSans-73" x="224.849609"/>
      <use xlink:href="#DejaVuSans-68" x="276.949219"/>
      <use xlink:href="#DejaVuSans-6f" x="340.328125"/>
      <use xlink:href="#DejaVuSans-6c" x="401.509766"/>
      <use xlink:href="#DejaVuSans-64" x="429.292969"/>
     </g>
    </g>
    <g id="line2d_20">
     <path d="M 62.328125 38.775781 
L 72.328125 38.775781 
L 82.328125 38.775781 
" style="fill: none; stroke-dasharray: 5.55,2.4; stroke-dashoffset: 0; stroke: #0000ff; stroke-width: 1.5"/>
    </g>
    <g id="text_16">
     <!-- Baseline -->
     <g transform="translate(90.328125 42.275781) scale(0.1 -0.1)">
      <defs>
       <path id="DejaVuSans-42" d="M 1259 2228 
L 1259 519 
L 2272 519 
Q 2781 519 3026 730 
Q 3272 941 3272 1375 
Q 3272 1813 3026 2020 
Q 2781 2228 2272 2228 
L 1259 2228 
z
M 1259 4147 
L 1259 2741 
L 2194 2741 
Q 2656 2741 2882 2914 
Q 3109 3088 3109 3444 
Q 3109 3797 2882 3972 
Q 2656 4147 2194 4147 
L 1259 4147 
z
M 628 4666 
L 2241 4666 
Q 2963 4666 3353 4366 
Q 3744 4066 3744 3513 
Q 3744 3084 3544 2831 
Q 3344 2578 2956 2516 
Q 3422 2416 3680 2098 
Q 3938 1781 3938 1306 
Q 3938 681 3513 340 
Q 3088 0 2303 0 
L 628 0 
L 628 4666 
z
" transform="scale(0.015625)"/>
       <path id="DejaVuSans-61" d="M 2194 1759 
Q 1497 1759 1228 1600 
Q 959 1441 959 1056 
Q 959 750 1161 570 
Q 1363 391 1709 391 
Q 2188 391 2477 730 
Q 2766 1069 2766 1631 
L 2766 1759 
L 2194 1759 
z
M 3341 1997 
L 3341 0 
L 2766 0 
L 2766 531 
Q 2569 213 2275 61 
Q 1981 -91 1556 -91 
Q 1019 -91 701 211 
Q 384 513 384 1019 
Q 384 1609 779 1909 
Q 1175 2209 1959 2209 
L 2766 2209 
L 2766 2266 
Q 2766 2663 2505 2880 
Q 2244 3097 1772 3097 
Q 1472 3097 1187 3025 
Q 903 2953 641 2809 
L 641 3341 
Q 956 3463 1253 3523 
Q 1550 3584 1831 3584 
Q 2591 3584 2966 3190 
Q 3341 2797 3341 1997 
z
" transform="scale(0.015625)"/>
      </defs>
      <use xlink:href="#DejaVuSans-42"/>
      <use xlink:href="#DejaVuSans-61" x="68.603516"/>
      <use xlink:href="#DejaVuSans-73" x="129.882812"/>
      <use xlink:href="#DejaVuSans-65" x="181.982422"/>
      <use xlink:href="#DejaVuSans-6c" x="243.505859"/>
      <use xlink:href="#DejaVuSans-69" x="271.289062"/>
      <use xlink:href="#DejaVuSans-6e" x="299.072266"/>
      <use xlink:href="#DejaVuSans-65" x="362.451172"/>
     </g>
    </g>
    <g id="line2d_21">
     <path d="M 62.328125 53.453906 
L 72.328125 53.453906 
L 82.328125 53.453906 
" style="fill: none; stroke-dasharray: 5.55,2.4; stroke-dashoffset: 0; stroke: #ff0000; stroke-width: 1.5"/>
    </g>
    <g id="text_17">
     <!-- Burst Max -->
     <g transform="translate(90.328125 56.953906) scale(0.1 -0.1)">
      <defs>
       <path id="DejaVuSans-4d" d="M 628 4666 
L 1569 4666 
L 2759 1491 
L 3956 4666 
L 4897 4666 
L 4897 0 
L 4281 0 
L 4281 4097 
L 3078 897 
L 2444 897 
L 1241 4097 
L 1241 0 
L 628 0 
L 628 4666 
z
" transform="scale(0.015625)"/>
       <path id="DejaVuSans-78" d="M 3513 3500 
L 2247 1797 
L 3578 0 
L 2900 0 
L 1881 1375 
L 863 0 
L 184 0 
L 1544 1831 
L 300 3500 
L 978 3500 
L 1906 2253 
L 2834 3500 
L 3513 3500 
z
" transform="scale(0.015625)"/>
      </defs>
      <use xlink:href="#DejaVuSans-42"/>
      <use xlink:href="#DejaVuSans-75" x="68.603516"/>
      <use xlink:href="#DejaVuSans-72" x="131.982422"/>
      <use xlink:href="#DejaVuSans-73" x="173.095703"/>
      <use xlink:href="#DejaVuSans-74" x="225.195312"/>
      <use xlink:href="#DejaVuSans-20" x="264.404297"/>
      <use xlink:href="#DejaVuSans-4d" x="296.191406"/>
      <use xlink:href="#DejaVuSans-61" x="382.470703"/>
      <use xlink:href="#DejaVuSans-78" x="443.75"/>
     </g>
    </g>
    <g id="line2d_22">
     <path d="M 62.328125 68.132031 
L 72.328125 68.132031 
L 82.328125 68.132031 
" style="fill: none; stroke-dasharray: 5.55,2.4; stroke-dashoffset: 0; stroke: #008000; stroke-width: 1.5"/>
    </g>
    <g id="text_18">
     <!-- Mode -->
     <g transform="translate(90.328125 71.632031) scale(0.1 -0.1)">
      <use xlink:href="#DejaVuSans-4d"/>
      <use xlink:href="#DejaVuSans-6f" x="86.279297"/>
      <use xlink:href="#DejaVuSans-64" x="147.460938"/>
      <use xlink:href="#DejaVuSans-65" x="210.9375"/>
     </g>
    </g>
   </g>
  </g>
 </g>
 <defs>
  <clipPath id="p3de5f37e10">
   <rect x="53.328125" y="10.999219" width="558" height="277.2"/>
  </clipPath>
 </defs>
</svg>
